<svg id="Layer_1" data-name="Layer 1" xmlns="http://www.w3.org/2000/svg" viewBox="0 0 1084.06 468.74"><defs><style>.cls-1,.cls-2{fill:#fff;}.cls-1{stroke:#231f20;stroke-miterlimit:10;}.cls-3{fill:#de2427;}.cls-4{fill:#231f20;}.cls-5{fill:#a7a9ac;}</style></defs><rect class="cls-1" x="0.5" y="96" width="154.72" height="74.45"/><rect class="cls-1" x="155.22" y="96" width="154.72" height="74.45"/><rect class="cls-2" x="0.5" width="1083.06" height="74.45"/><rect class="cls-1" x="309.95" y="96" width="154.72" height="74.45"/><rect class="cls-1" x="464.67" y="96" width="154.72" height="74.45"/><rect class="cls-1" x="619.39" y="96" width="154.72" height="74.45"/><rect class="cls-1" x="774.12" y="96" width="154.72" height="74.45"/><rect class="cls-1" x="928.84" y="96" width="154.72" height="74.45"/><rect class="cls-1" x="0.5" y="170.44" width="154.72" height="74.45"/><rect class="cls-1" x="155.22" y="170.44" width="154.72" height="74.45"/><rect class="cls-1" x="309.95" y="170.44" width="154.72" height="74.45"/><rect class="cls-1" x="464.67" y="170.44" width="154.72" height="74.45"/><rect class="cls-1" x="619.39" y="170.44" width="154.72" height="74.45"/><rect class="cls-1" x="774.12" y="170.44" width="154.72" height="74.45"/><rect class="cls-1" x="928.84" y="170.44" width="154.72" height="74.45"/><rect class="cls-1" x="0.5" y="244.89" width="154.72" height="74.45"/><rect class="cls-1" x="155.22" y="244.89" width="154.72" height="74.45"/><rect class="cls-1" x="309.95" y="244.89" width="154.72" height="74.45"/><rect class="cls-1" x="464.67" y="244.89" width="154.72" height="74.45"/><rect class="cls-1" x="619.39" y="244.89" width="154.72" height="74.45"/><rect class="cls-1" x="774.12" y="244.89" width="154.72" height="74.45"/><rect class="cls-1" x="928.84" y="244.89" width="154.72" height="74.45"/><rect class="cls-1" x="0.5" y="319.34" width="154.72" height="74.45"/><rect class="cls-1" x="155.22" y="319.34" width="154.72" height="74.45"/><rect class="cls-1" x="309.95" y="319.34" width="154.72" height="74.45"/><rect class="cls-1" x="464.67" y="319.34" width="154.72" height="74.45"/><rect class="cls-1" x="619.39" y="319.34" width="154.72" height="74.45"/><rect class="cls-1" x="774.12" y="319.34" width="154.72" height="74.45"/><rect class="cls-1" x="928.84" y="319.34" width="154.72" height="74.45"/><rect class="cls-1" x="0.5" y="393.79" width="154.72" height="74.45"/><rect class="cls-1" x="155.22" y="393.79" width="154.72" height="74.45"/><rect class="cls-1" x="309.95" y="393.79" width="154.72" height="74.45"/><rect class="cls-1" x="464.67" y="393.79" width="154.72" height="74.45"/><rect class="cls-1" x="619.39" y="393.79" width="154.72" height="74.45"/><rect class="cls-1" x="774.12" y="393.79" width="154.72" height="74.45"/><rect class="cls-1" x="928.84" y="393.79" width="154.72" height="74.45"/><path class="cls-3" d="M1490.83,381.83l-23.61,23.61V358.22Z" transform="translate(-435.01 -344.61)"/><path class="cls-3" d="M484.7,358.22v47.23l-23.61-23.61Z" transform="translate(-435.01 -344.61)"/><path class="cls-4" d="M846.49,353.58q0,3.44-.32,10.29t-.32,10.29q0,1.11.07,3.33t.07,3.34A50.9,50.9,0,0,1,844.4,395a33.06,33.06,0,0,1-9.3,15.3,2.12,2.12,0,0,1-1.25.64,1.31,1.31,0,0,1-.91-.5q-1.69-2-5.19-5.73-2-1.72-6-5.29a1.2,1.2,0,0,1-.44-.78,1,1,0,0,1,.37-.67q.54-.34,1.52-1a11.92,11.92,0,0,0,4-6,34.85,34.85,0,0,0,1.08-9.8q0-5.32-.4-13.61-.61-11.66-.67-13.58v-.4q0-.84.77-.84,1.52,0,4.58.13t4.58.13q1.42,0,4.25-.13t4.25-.13Q846.49,352.71,846.49,353.58Z" transform="translate(-435.01 -344.61)"/><path class="cls-4" d="M889.78,368.1q0,2.7-.27,8.1t-.27,8.1q0,2.36.2,7.07t.2,7.08q0,1-.51,1.35a3.31,3.31,0,0,1-1.45.2q-1.11,0-3.34-.08t-3.34-.08q-1.21,0-3.66.2t-3.62.2q-.64,0-.81-2.05t-.57-2.06q.3,0-3,2a12.49,12.49,0,0,1-6.42,2q-8.66,0-10.41-8.09a54,54,0,0,1-.88-10.81q0-8.93,1.35-13.31a1.69,1.69,0,0,1,1.68-1.38q1,0,3,.1t3,.1l3.44,0,3.47,0a1.15,1.15,0,0,1,1.31,1.28q0,1.65-.25,5t-.25,5.07q0,8.83,2.43,8.83,1.92,0,1.92-1.85V369.28q0-1.72.67-2.22a4.56,4.56,0,0,1,2.36-.4h12.57A1.28,1.28,0,0,1,889.78,368.1Z" transform="translate(-435.01 -344.61)"/><path class="cls-4" d="M931.32,398.73q0,1.38-1.25,1.38t-3.4-.1q-2.26-.1-3.37-.1l-3.52,0-3.52,0q-1.31,0-1.31-1.72,0-1.55.07-4.6t.07-4.6q0-1.15-.07-3.44t-.07-3.44a1.94,1.94,0,0,0-3.87-.07v16.27q0,1.72-1.45,1.72-1.08,0-3.27-.1t-3.27-.1l-3.45,0-3.45,0a1.28,1.28,0,0,1-1.45-1.45V382.79a49.79,49.79,0,0,0-1.58-13.11,2.48,2.48,0,0,1-.1-.64.87.87,0,0,1,.57-.88q3.44-.44,8.15-1.11,7-1.35,8-1.35.67,0,.84,2.22t.54,2.22a20.89,20.89,0,0,1,3.49-2,14.31,14.31,0,0,1,6.22-2,12.67,12.67,0,0,1,7,1.92,7,7,0,0,1,3.4,6.13Z" transform="translate(-435.01 -344.61)"/><path class="cls-4" d="M969.49,382.05q0,3.5-2.19,4-.78.2-8.76,1.11l-7.88.91a3.37,3.37,0,0,0,2.22,1.82,8.94,8.94,0,0,0,3,.5,13.75,13.75,0,0,0,4.06-.84,19.06,19.06,0,0,1,2.91-.84,1,1,0,0,1,.88.61q.51,1.15,1.62,3.37s.43.64,1.28,1.85a10.2,10.2,0,0,1,1.15,1.79,1.11,1.11,0,0,1-.44.78q-3.74,3.61-12.9,3.61-8.76,0-13.68-4.14-5.29-4.41-5.29-13a17.78,17.78,0,0,1,5.1-12.94,17.1,17.1,0,0,1,12.75-5.22,15.34,15.34,0,0,1,11.44,4.94A16.21,16.21,0,0,1,969.49,382.05Zm-13.44-2.43a2.89,2.89,0,0,0-.79-1.92,2.32,2.32,0,0,0-1.77-.91,3.25,3.25,0,0,0-2.17.86,2.58,2.58,0,0,0-1,2q0,.78,1.11.78a11.74,11.74,0,0,0,1.72-.17l1.72-.24Q956.05,379.93,956.05,379.63Z" transform="translate(-435.01 -344.61)"/><path class="cls-4" d="M1026,387.07a30.64,30.64,0,0,1-.24,3.13,30.89,30.89,0,0,0-.24,3.13q0,1.21,0,3.57t0,3.54q0,1-1.18,1s-1.12-.26-3.23-.78a58.27,58.27,0,0,0-12.23-.94q-2.66,0-8,.3t-8,.3q-1.51,0-1.52-1.11a34.42,34.42,0,0,0-1.72-8.89,4.51,4.51,0,0,1-.2-.91q0-.84,2.83-1.28l3.57-.34q2.12-.3,6.17-5.12t4-7q0-3.64-3.84-3.64a14.44,14.44,0,0,0-6.81,1.72,21.83,21.83,0,0,0-3.07,1.72q-1.38,0-1.58-2a15.44,15.44,0,0,0,.07-3,18.89,18.89,0,0,0-.69-4.46,23.83,23.83,0,0,1-.69-3.15c0-.34.25-.67.74-1q5.53-3.64,16.44-3.64a21.55,21.55,0,0,1,11.25,2.76,10.64,10.64,0,0,1,5.56,9.6,16,16,0,0,1-2.32,8.83,37.33,37.33,0,0,1-6.37,6.67q9.27-.4,10.14-.4Q1026,385.62,1026,387.07Z" transform="translate(-435.01 -344.61)"/><path class="cls-4" d="M1070.47,379.63a21.45,21.45,0,1,1-6.28-15.18A20.68,20.68,0,0,1,1070.47,379.63Zm-16.91,0a4.6,4.6,0,1,0-1.35,3.2A4.38,4.38,0,0,0,1053.55,379.63Z" transform="translate(-435.01 -344.61)"/><path class="cls-4" d="M1095.2,359.51a8.7,8.7,0,0,1-.1.91q-.47,3.34-.47,17.08v20.42a2,2,0,0,1-.67,1.75,3.73,3.73,0,0,1-1.82.3l-2.93,0-2.93,0q-1.18,0-3.55.1t-3.55.1a1.27,1.27,0,0,1-1.45-1.42q0-2,.24-5.86t.24-5.86V377q0-1.25-2.58-1.53t-2.58-2V364.3a1.33,1.33,0,0,1,.88-1.38q5.86-2.16,8.56-5.15c.52-.58.93-.88,1.25-.88a2.39,2.39,0,0,1,.5.1l10.41,1.92Q1095.2,359,1095.2,359.51Z" transform="translate(-435.01 -344.61)"/><path class="cls-4" d="M1132.76,369.22a2.61,2.61,0,0,1-1.11,1.72,25,25,0,0,0-6.77,10.88,49.77,49.77,0,0,0-2.73,15.6q0,3.4-1.75,3.4-1.41,0-4.26-.15t-4.3-.15q-1.38,0-4.19.15t-4.19.15q-.44,0-.71-1.11a30.94,30.94,0,0,1,4-15.26q1.92-3.47,2.86-5a29.5,29.5,0,0,1,3.4-4.55q.77-.84.78-1.11,0-.57-1.89-.57-2.06,0-6.17.18t-6.13.19q-.94,0-.94-1a21.4,21.4,0,0,1,.44-3.64q.54-2.9.61-3.67.13-1.31.13-7.58,0-1.28,1.52-1.28a18.17,18.17,0,0,1,3.77.71q3.17.77,4,.91,1.68.24,8,.37,6.81.17,13.14.17,1.85,0,2.14,2.12A78.59,78.59,0,0,1,1132.76,369.22Z" transform="translate(-435.01 -344.61)"/><path class="cls-4" d="M484.57,472.08q-.24.4-.67,1.21a11.07,11.07,0,0,1-.47,1.07.22.22,0,0,1-.19.11l-1.17-.43a6,6,0,0,0-1.94-.43q-2.23,0-2.23,2,0,1.09,1.56,1.9,2.63,1.37,2.91,1.57a4.08,4.08,0,0,1,1.56,3.37,5,5,0,0,1-2.14,4.27,7.82,7.82,0,0,1-4.73,1.4q-1.31,0-1.4-.29,0-.46-.22-1.34c-.06-.24-.17-.61-.3-1.09a.66.66,0,0,1,0-.21c0-.11.06-.17.18-.17s.49,0,.89.06.7.06.9.06q3.75,0,3.75-2.42a2.46,2.46,0,0,0-1.51-2.06q-2.76-1.57-2.82-1.63a4,4,0,0,1-1.53-3.32,4.66,4.66,0,0,1,1.48-3.61,5.33,5.33,0,0,1,3.73-1.31,9.27,9.27,0,0,1,2.23.32,6.24,6.24,0,0,1,2.06.85A.54.54,0,0,1,484.57,472.08Z" transform="translate(-435.01 -344.61)"/><path class="cls-4" d="M497.63,476.86q0,.88-.07,2.67t-.07,2.68q0,.88.05,2.64t.05,2.65a.3.3,0,0,1-.23.32q-.1,0-2.46,0-.15,0-.18-.91c0-.61-.07-.91-.14-.91a.34.34,0,0,0-.18.11,6.15,6.15,0,0,1-4,1.76q-2.67,0-3.53-1.94a11.89,11.89,0,0,1-.53-4.31,21.61,21.61,0,0,1,.45-4.76q.11-.47.4-.47h2.11c.16,0,.24.09.24.27a12.79,12.79,0,0,1-.16,1.58,16.47,16.47,0,0,0-.18,1.66q0,.73,0,1.6a8.69,8.69,0,0,0,.3,2.84,2.21,2.21,0,0,0,2.31,1.31,3.27,3.27,0,0,0,1.8-.75q1.1-.79,1.14-1.51.06-.91.06-6.39c0-.39.17-.59.5-.59h2C497.51,476.43,497.63,476.58,497.63,476.86Z" transform="translate(-435.01 -344.61)"/><path class="cls-4" d="M510.76,487.6c0,.18-.08.27-.24.27h-2.38q-.22,0-.22-.35,0-.59,0-1.8t0-1.82q0-.48,0-1.45t0-1.45a3.53,3.53,0,0,0-.4-1.95,2.06,2.06,0,0,0-1.79-.68,3.57,3.57,0,0,0-1.68.68q-1.14.71-1.14,1.27v7.26c0,.2-.08.3-.23.3H500.4q-.25,0-.25-.28,0-1,0-2.87t0-2.88a19.59,19.59,0,0,0-.54-4.76.58.58,0,0,1,0-.16c0-.08.05-.14.16-.17l1.39-.22,1.36-.21s.08.06.1.19a7.76,7.76,0,0,0,.28,1.51q.63-.5,1.66-1.23A4.73,4.73,0,0,1,507,476a3.39,3.39,0,0,1,3.11,1.32,6,6,0,0,1,.62,3.13q0,.38,0,1.15t0,1.16q0,.81,0,2.42T510.76,487.6Z" transform="translate(-435.01 -344.61)"/><path class="cls-4" d="M524.7,471q0,1.56-.14,4.68t-.14,4.67q0,4.78.21,7.24v.16c0,.08-.1.13-.33.16a4.2,4.2,0,0,1-.65,0l-.47,0-.53,0-.53,0q-.17,0-.2-.84a2.42,2.42,0,0,0-.09-.85.71.71,0,0,0-.18.16,5.11,5.11,0,0,1-7.83-.07,6.33,6.33,0,0,1-1.49-4.24,6.44,6.44,0,0,1,1.5-4.34,5.14,5.14,0,0,1,4.1-1.84,4.18,4.18,0,0,1,2.66.9l1,.91a.16.16,0,0,0,.1-.17v-3.92q0-.4,0-1.21t0-1.22c0-.19.06-.29.19-.29q.45,0,1.33-.08t1.32-.08C524.63,470.7,524.7,470.78,524.7,471Zm-3,11a3.93,3.93,0,0,0-.9-2.55,3,3,0,0,0-2.37-1.17,3.06,3.06,0,0,0-2.46,1.16A3.92,3.92,0,0,0,515,482a3.69,3.69,0,0,0,1,2.53,3.07,3.07,0,0,0,2.42,1.14,3,3,0,0,0,2.4-1.15A4,4,0,0,0,521.67,482Z" transform="translate(-435.01 -344.61)"/><path class="cls-4" d="M538.62,476.88a1.41,1.41,0,0,1,0,.22,29.11,29.11,0,0,0-.47,4.78q0,.12.3,5.44v.17q0,.35-.32.35a9.65,9.65,0,0,0-1,.08,9.17,9.17,0,0,1-1,.08q-.23,0-.35-.85t-.23-.85a3.13,3.13,0,0,0-.65.47,7.15,7.15,0,0,1-1.33.88,4.21,4.21,0,0,1-1.91.48,5,5,0,0,1-4-1.88,6.25,6.25,0,0,1-1.53-4.18,6.5,6.5,0,0,1,1.54-4.44,5.37,5.37,0,0,1,4.24-1.83,4.6,4.6,0,0,1,3.23,1.28q.21.24.64.7a.11.11,0,0,0,.07,0s.12-.25.21-.76.2-.76.34-.76a7.54,7.54,0,0,1,1.22.18Q538.62,476.71,538.62,476.88Zm-3.09,5.06a3.87,3.87,0,0,0-.88-2.55,2.94,2.94,0,0,0-2.38-1.15,3,3,0,0,0-2.42,1.14,3.82,3.82,0,0,0-.93,2.57,3.76,3.76,0,0,0,.93,2.54,3.06,3.06,0,0,0,2.42,1.13,3,3,0,0,0,2.37-1.15A3.82,3.82,0,0,0,535.53,481.94Z" transform="translate(-435.01 -344.61)"/><path class="cls-4" d="M550.79,479.41a13.63,13.63,0,0,1-.12,2.47,41.92,41.92,0,0,1-3,4.75,50.2,50.2,0,0,1-3.37,4.7q-.48.43-3.12.44a.79.79,0,0,1-.41-.07,3.69,3.69,0,0,1-.41-.88,4.63,4.63,0,0,1-.32-1q0-.27.64-.27a4,4,0,0,0,2-.39,3,3,0,0,0,.66-.84,2.46,2.46,0,0,0,.44-.94,10.83,10.83,0,0,0-1.76-2.55,16.51,16.51,0,0,1-2.07-3,9.74,9.74,0,0,1-.17-2.37c0-.31,0-.77,0-1.39s0-1.08,0-1.4.1-.27.29-.27.64,0,1.14,0,.89,0,1.14,0,.19.09.19.25,0,.57,0,1,0,.79,0,1a18.25,18.25,0,0,0,.1,2.2,9.33,9.33,0,0,0,1.32,2.29q1.25,1.83,1.54,1.83t1.31-1.8a10.51,10.51,0,0,0,1.17-2.22,16.47,16.47,0,0,0,.1-2.2q0-.35-.07-1t-.07-1c0-.2.06-.3.19-.3s.65,0,1.17-.05.91-.05,1.17-.05S550.79,477.45,550.79,479.41Z" transform="translate(-435.01 -344.61)"/><path class="cls-4" d="M643.15,491.2a.27.27,0,0,1-.3.3l-.66,0-.66,0-.67,0-.67,0q-.3,0-.3-.4,0-1.54.1-4.61t.1-4.61c0-.15,0-.23-.1-.23a.19.19,0,0,0-.17.13q-.62,1.32-2.92,7-.37,1.1-1.08,2.75-.08.16-.87.16-1.14,0-1.26-.2-.41-1-1.17-2.75-1-2.4-3.09-7.14a.43.43,0,0,0-.16-.17.31.31,0,0,0-.1.27q0,1.56.05,4.68t.05,4.69q0,.4-.3.4l-.63,0-.63,0-.65,0-.65,0c-.2,0-.3-.08-.3-.23q0-1.34.13-4t.13-4q0-1.39-.13-4.18t-.13-4.18q0-.23.28-.27a20.61,20.61,0,0,1,2.48-.22q.12,0,.34.5,2.93,6.44,5,11.5a4,4,0,0,0,.59,1.19c.08,0,.25-.32.52-1q1.65-3.92,4.56-11.65.18-.47.4-.47.41,0,1.24,0t1.24,0q.3,0,.3.29,0,1.39-.09,4.18t-.09,4.18q0,1.33.1,4T643.15,491.2Z" transform="translate(-435.01 -344.61)"/><path class="cls-4" d="M656.66,485.6a6.14,6.14,0,0,1-1.66,4.32,5.72,5.72,0,0,1-8.41,0,6.43,6.43,0,0,1,0-8.62,5.77,5.77,0,0,1,8.4,0A6,6,0,0,1,656.66,485.6Zm-2.55,0a3.7,3.7,0,0,0-.91-2.52,3,3,0,0,0-2.4-1.1,3.07,3.07,0,0,0-2.41,1.09,3.94,3.94,0,0,0,0,5,3.11,3.11,0,0,0,4.79,0A3.75,3.75,0,0,0,654.11,485.63Z" transform="translate(-435.01 -344.61)"/><path class="cls-4" d="M669,491.26c0,.18-.08.27-.24.27h-2.39c-.14,0-.22-.12-.22-.35q0-.59,0-1.8t0-1.82q0-.48,0-1.45c0-.64,0-1.12,0-1.45a3.53,3.53,0,0,0-.4-1.95A2.06,2.06,0,0,0,664,482a3.56,3.56,0,0,0-1.68.68q-1.14.71-1.14,1.27v7.26c0,.2-.08.3-.23.3h-2.32c-.17,0-.25-.09-.25-.28q0-1,0-2.87t0-2.88a19.61,19.61,0,0,0-.54-4.76.56.56,0,0,1,0-.16c0-.08.05-.14.16-.17l1.39-.22,1.36-.21s.08.07.1.19a7.78,7.78,0,0,0,.28,1.51q.63-.5,1.66-1.24a4.73,4.73,0,0,1,2.46-.77,3.4,3.4,0,0,1,3.11,1.32,6,6,0,0,1,.62,3.13q0,.38,0,1.15t0,1.16q0,.81,0,2.42T669,491.26Z" transform="translate(-435.01 -344.61)"/><path class="cls-4" d="M683,474.61q0,1.56-.14,4.68t-.14,4.67q0,4.78.21,7.24v.16c0,.08-.1.13-.33.16a4.21,4.21,0,0,1-.65,0l-.47,0-.53,0-.53,0c-.11,0-.18-.28-.2-.84a2.42,2.42,0,0,0-.09-.85.72.72,0,0,0-.18.16,5.11,5.11,0,0,1-7.83-.07,6.34,6.34,0,0,1-1.49-4.24,6.44,6.44,0,0,1,1.5-4.33,5.14,5.14,0,0,1,4.1-1.84,4.18,4.18,0,0,1,2.66.9l1,.91a.16.16,0,0,0,.1-.17v-3.92q0-.4,0-1.21t0-1.22c0-.19.06-.29.19-.29q.45,0,1.33-.08t1.32-.08C682.9,474.36,683,474.44,683,474.61Zm-3,11a3.93,3.93,0,0,0-.9-2.55,2.94,2.94,0,0,0-2.37-1.17,3.06,3.06,0,0,0-2.46,1.16,3.92,3.92,0,0,0-.92,2.61,3.69,3.69,0,0,0,1,2.53,3.07,3.07,0,0,0,2.42,1.14,3,3,0,0,0,2.4-1.15A4,4,0,0,0,679.94,485.63Z" transform="translate(-435.01 -344.61)"/><path class="cls-4" d="M696.89,480.54a1.39,1.39,0,0,1,0,.22,29.12,29.12,0,0,0-.47,4.78q0,.12.3,5.44v.17c0,.23-.1.35-.32.35a9.71,9.71,0,0,0-1,.08,9.44,9.44,0,0,1-1,.08q-.23,0-.35-.85c-.08-.56-.16-.85-.23-.85a3.18,3.18,0,0,0-.65.47,7.13,7.13,0,0,1-1.33.88,4.21,4.21,0,0,1-1.91.48,5,5,0,0,1-4-1.88,6.25,6.25,0,0,1-1.52-4.18,6.5,6.5,0,0,1,1.54-4.44,5.37,5.37,0,0,1,4.24-1.83,4.6,4.6,0,0,1,3.23,1.28q.21.24.64.7a.1.1,0,0,0,.07,0s.12-.25.21-.76.2-.76.34-.76a7.55,7.55,0,0,1,1.22.18Q696.89,480.37,696.89,480.54Zm-3.09,5.06a3.87,3.87,0,0,0-.88-2.55,2.93,2.93,0,0,0-2.38-1.15,3,3,0,0,0-2.42,1.14,3.82,3.82,0,0,0-.93,2.57,3.76,3.76,0,0,0,.93,2.54,3.06,3.06,0,0,0,2.42,1.13,3,3,0,0,0,2.37-1.15A3.82,3.82,0,0,0,693.8,485.6Z" transform="translate(-435.01 -344.61)"/><path class="cls-4" d="M709.06,483.07a13.64,13.64,0,0,1-.12,2.47,41.87,41.87,0,0,1-3,4.75,50.3,50.3,0,0,1-3.37,4.7q-.48.43-3.12.44a.79.79,0,0,1-.41-.07,3.67,3.67,0,0,1-.41-.88,4.67,4.67,0,0,1-.32-1c0-.18.21-.27.64-.27a4,4,0,0,0,2-.39,3,3,0,0,0,.66-.84,2.46,2.46,0,0,0,.44-.94,10.79,10.79,0,0,0-1.76-2.55,16.67,16.67,0,0,1-2.07-3,9.78,9.78,0,0,1-.17-2.37q0-.46,0-1.39t0-1.4q0-.27.29-.27t1.14,0q.76,0,1.14,0,.19,0,.19.25t0,1c0,.45,0,.79,0,1a18.27,18.27,0,0,0,.1,2.2,9.37,9.37,0,0,0,1.32,2.29q1.25,1.83,1.54,1.83T705,487a10.49,10.49,0,0,0,1.17-2.22,16.49,16.49,0,0,0,.1-2.2c0-.23,0-.58-.07-1s-.07-.8-.07-1,.06-.3.19-.3.65,0,1.17-.05.91-.05,1.17-.05S709.06,481.11,709.06,483.07Z" transform="translate(-435.01 -344.61)"/><path class="cls-4" d="M786.85,475c0,.21-.07.32-.22.32l-4.29-.15q-.11,3.69-.11,5.92,0,1.39.1,4.18t.1,4.18c0,.17-.12.25-.35.25l-.67,0-.68,0-.67,0-.67,0a.27.27,0,0,1-.3-.3q0-1.38.11-4.15t.12-4.16q0-2.15-.13-5.92-3.12.19-4.58.19c-.1,0-.15,0-.15-.12a2.71,2.71,0,0,1,.11-.63l.16-.63a9.46,9.46,0,0,1,.17-1.17.21.21,0,0,1,.21-.16h.15q4.29.25,5.65.25,1.21,0,4-.18a12.57,12.57,0,0,0,1.56-.12c.21,0,.33.07.35.22a8,8,0,0,0,0,1.17c0,.11,0,.27,0,.49A5,5,0,0,1,786.85,475Z" transform="translate(-435.01 -344.61)"/><path class="cls-4" d="M799.5,478.67q0,.88-.07,2.67t-.07,2.68q0,.88.05,2.64t.05,2.64a.3.3,0,0,1-.23.32q-.1,0-2.46,0-.15,0-.18-.91c0-.61-.07-.91-.14-.91a.35.35,0,0,0-.18.11,6.15,6.15,0,0,1-4,1.75q-2.68,0-3.53-1.94a11.91,11.91,0,0,1-.53-4.31,21.59,21.59,0,0,1,.45-4.76q.11-.47.4-.47h2.11c.16,0,.24.09.24.27a12.67,12.67,0,0,1-.16,1.57,16.59,16.59,0,0,0-.18,1.66q0,.73,0,1.6a8.7,8.7,0,0,0,.3,2.84,2.21,2.21,0,0,0,2.31,1.31,3.27,3.27,0,0,0,1.8-.75q1.1-.79,1.14-1.51.06-.91.06-6.39c0-.39.17-.59.5-.59h2C799.39,478.25,799.5,478.39,799.5,478.67Z" transform="translate(-435.01 -344.61)"/><path class="cls-4" d="M812.23,483.15a1.17,1.17,0,0,1-.77,1.2q-.52.19-7.49.71a2.72,2.72,0,0,0,1.17,1.82,3.44,3.44,0,0,0,2.08.71,5.61,5.61,0,0,0,3.51-1.24l.39-.31a.22.22,0,0,1,.13,0s.17.3.45.84a7.16,7.16,0,0,1,.42.88s-.06.14-.19.28a6.63,6.63,0,0,1-9,.21,6.06,6.06,0,0,1-1.67-4.47,6.44,6.44,0,0,1,1.6-4.35,5.28,5.28,0,0,1,4.13-1.92,4.94,4.94,0,0,1,3.8,1.67A5.63,5.63,0,0,1,812.23,483.15Zm-2.88-.74a2.42,2.42,0,0,0-.79-1.78,2.49,2.49,0,0,0-1.79-.77,2.68,2.68,0,0,0-2,.9,2.82,2.82,0,0,0-.87,2q0,.25.44.25a30.37,30.37,0,0,0,4.29-.36Q809.35,482.56,809.35,482.41Z" transform="translate(-435.01 -344.61)"/><path class="cls-4" d="M819.59,485.92a3.45,3.45,0,0,1-1.44,2.89,5.11,5.11,0,0,1-3.18,1,4.64,4.64,0,0,1-.82,0c-.14-.06-.21-.26-.21-.59a7.09,7.09,0,0,0-.07-.8,7,7,0,0,1-.07-.79c0-.1.07-.17.22-.21a1.35,1.35,0,0,1,.45,0l.36,0q2.29,0,2.29-1.4,0-.67-1-1.22a18.8,18.8,0,0,1-1.88-1.1,2.82,2.82,0,0,1-1-2.25,3.33,3.33,0,0,1,1.37-2.83,5.13,5.13,0,0,1,3.12-.91.26.26,0,0,1,.25.16,8.24,8.24,0,0,1,.3,1,6.22,6.22,0,0,1,.22,1c0,.09-.08.15-.23.17l-1.56.21q-.93.25-.93,1,0,.54,1,1.1a11.48,11.48,0,0,1,1.84,1.17A3.2,3.2,0,0,1,819.59,485.92Z" transform="translate(-435.01 -344.61)"/><path class="cls-4" d="M833,472.77q0,1.56-.14,4.68t-.14,4.67q0,4.78.21,7.24v.16c0,.08-.1.13-.33.16a4.2,4.2,0,0,1-.65,0l-.47,0-.53,0-.53,0c-.11,0-.18-.28-.2-.84a2.45,2.45,0,0,0-.09-.85.72.72,0,0,0-.18.16,5.11,5.11,0,0,1-7.83-.07,6.33,6.33,0,0,1-1.49-4.24,6.44,6.44,0,0,1,1.5-4.33,5.14,5.14,0,0,1,4.1-1.84,4.18,4.18,0,0,1,2.66.9l1,.91a.16.16,0,0,0,.1-.17v-3.92c0-.26,0-.67,0-1.21s0-.95,0-1.22.06-.29.19-.29q.45,0,1.33-.08t1.32-.08C832.9,472.51,833,472.6,833,472.77Zm-3,11a3.93,3.93,0,0,0-.9-2.55,2.94,2.94,0,0,0-2.37-1.17,3.06,3.06,0,0,0-2.46,1.16,3.92,3.92,0,0,0-.92,2.62,3.69,3.69,0,0,0,1,2.53,3.07,3.07,0,0,0,2.42,1.14,3,3,0,0,0,2.4-1.15A4,4,0,0,0,829.94,483.78Z" transform="translate(-435.01 -344.61)"/><path class="cls-4" d="M846.89,478.7a1.48,1.48,0,0,1,0,.22,29.05,29.05,0,0,0-.47,4.78q0,.12.3,5.44v.17q0,.35-.32.35a9.65,9.65,0,0,0-1,.08,9.45,9.45,0,0,1-1,.08q-.23,0-.35-.85t-.23-.85a3.12,3.12,0,0,0-.65.47,7.1,7.1,0,0,1-1.33.88,4.2,4.2,0,0,1-1.91.48,5,5,0,0,1-4-1.88,6.25,6.25,0,0,1-1.53-4.18,6.5,6.5,0,0,1,1.54-4.44,5.37,5.37,0,0,1,4.24-1.83,4.6,4.6,0,0,1,3.23,1.28c.14.16.35.4.64.7a.11.11,0,0,0,.07,0s.12-.25.21-.76.2-.76.34-.76a7.52,7.52,0,0,1,1.22.18Q846.89,478.53,846.89,478.7Zm-3.09,5.06a3.88,3.88,0,0,0-.88-2.55,2.93,2.93,0,0,0-2.38-1.15,3,3,0,0,0-2.42,1.14,3.82,3.82,0,0,0-.93,2.57,3.76,3.76,0,0,0,.93,2.54,3.07,3.07,0,0,0,2.42,1.13,3,3,0,0,0,2.37-1.15A3.82,3.82,0,0,0,843.8,483.76Z" transform="translate(-435.01 -344.61)"/><path class="cls-4" d="M859.05,481.23a13.62,13.62,0,0,1-.12,2.47,41.89,41.89,0,0,1-3,4.75,49.78,49.78,0,0,1-3.37,4.7q-.48.44-3.12.44a.78.78,0,0,1-.4-.07,3.64,3.64,0,0,1-.41-.88,4.66,4.66,0,0,1-.32-1c0-.18.21-.27.64-.27a4,4,0,0,0,2-.39,3,3,0,0,0,.66-.84,2.44,2.44,0,0,0,.44-.94,10.84,10.84,0,0,0-1.76-2.56,16.61,16.61,0,0,1-2.07-3,9.76,9.76,0,0,1-.17-2.37q0-.46,0-1.39t0-1.4c0-.18.1-.27.29-.27s.64,0,1.14,0,.89,0,1.14,0,.19.09.19.25,0,.56,0,1,0,.79,0,1a18.17,18.17,0,0,0,.1,2.2,9.31,9.31,0,0,0,1.32,2.29q1.25,1.83,1.54,1.83t1.31-1.8a10.47,10.47,0,0,0,1.17-2.22,16.31,16.31,0,0,0,.1-2.2q0-.35-.07-1c0-.46-.07-.8-.07-1s.06-.3.19-.3.65,0,1.17-.05.91-.05,1.17-.05S859.05,479.27,859.05,481.23Z" transform="translate(-435.01 -344.61)"/><path class="cls-4" d="M1098.24,473.46c0,.21-.07.31-.22.31l-4.29-.15q-.11,3.69-.11,5.92,0,1.39.1,4.18t.1,4.18q0,.25-.35.25l-.67,0-.68,0-.67,0-.66,0a.27.27,0,0,1-.3-.3q0-1.38.12-4.15t.11-4.16q0-2.15-.13-5.92-3.12.19-4.58.19c-.1,0-.15,0-.15-.12a2.69,2.69,0,0,1,.11-.63l.16-.63a9.33,9.33,0,0,1,.17-1.17.21.21,0,0,1,.2-.16h.15q4.28.25,5.65.25,1.21,0,4-.18a13.08,13.08,0,0,0,1.56-.12c.21,0,.33.07.35.22a8.13,8.13,0,0,0,0,1.17c0,.1,0,.27,0,.49A5,5,0,0,1,1098.24,473.46Z" transform="translate(-435.01 -344.61)"/><path class="cls-4" d="M1110.25,487.74c0,.3-.08.45-.25.45h-2.28q-.3,0-.3-.4,0-.58,0-1.75t0-1.77q0-.56,0-1.69t0-1.7q0-2.18-2.06-2.18a3.62,3.62,0,0,0-1.74.67q-1.15.71-1.15,1.31v7.19c0,.23-.08.35-.25.35H1100c-.19,0-.28-.11-.28-.33V482q0-1.43-.16-6.08,0-1.44-.21-4.26a1.41,1.41,0,0,1,0-.19c0-.14,0-.22.15-.25a6.68,6.68,0,0,1,1.37-.07,4.78,4.78,0,0,0,.76-.09,4.74,4.74,0,0,1,.74-.09c.1,0,.16.08.16.23q0,1.14-.09,3.42t-.09,3.42c0,.19,0,.28.1.29q.62-.52,1.6-1.26a4.67,4.67,0,0,1,2.51-.74,3.42,3.42,0,0,1,3.14,1.36,6.15,6.15,0,0,1,.62,3.15q0,.38,0,1.16t0,1.16q0,.77,0,2.31T1110.25,487.74Z" transform="translate(-435.01 -344.61)"/><path class="cls-4" d="M1123.79,477.18q0,.88-.07,2.67t-.07,2.68q0,.88.05,2.64t.05,2.65a.3.3,0,0,1-.23.31q-.1,0-2.46,0c-.1,0-.15-.3-.17-.91s-.07-.91-.14-.91a.34.34,0,0,0-.18.11,6.16,6.16,0,0,1-4,1.76q-2.67,0-3.53-1.94a11.92,11.92,0,0,1-.53-4.31,21.58,21.58,0,0,1,.45-4.76c.07-.32.21-.47.4-.47h2.11c.16,0,.24.09.24.27a12.86,12.86,0,0,1-.16,1.57,16.47,16.47,0,0,0-.18,1.66q0,.73,0,1.6a8.66,8.66,0,0,0,.3,2.84,2.21,2.21,0,0,0,2.31,1.31,3.26,3.26,0,0,0,1.8-.75q1.1-.79,1.14-1.51.06-.91.06-6.39,0-.59.5-.59h2C1123.67,476.76,1123.79,476.9,1123.79,477.18Z" transform="translate(-435.01 -344.61)"/><path class="cls-4" d="M1133.18,476.79a14.78,14.78,0,0,1-.18,2.42c0,.18-.1.28-.24.28s-.42,0-.77-.05-.6-.05-.78-.05q-1.52,0-1.95.86a5.87,5.87,0,0,0-.25,2.17v1.33q0,.68.05,2.06t.05,2.06c0,.22-.09.33-.28.33h-2.28q-.28,0-.28-.3,0-1,0-3t0-3a16.89,16.89,0,0,0-.56-4.81.64.64,0,0,1,0-.14.21.21,0,0,1,.16-.21l1.26-.15c.87-.16,1.28-.24,1.21-.24.13,0,.21.24.25.71s.11.71.22.71l.06,0,1-.63a4.48,4.48,0,0,1,1.11-.48,4.22,4.22,0,0,1,1.21-.14Q1133.18,476.54,1133.18,476.79Z" transform="translate(-435.01 -344.61)"/><path class="cls-4" d="M1140.18,484.43a3.45,3.45,0,0,1-1.44,2.89,5.11,5.11,0,0,1-3.18,1,4.69,4.69,0,0,1-.82,0q-.21-.1-.21-.59a7.09,7.09,0,0,0-.07-.8,7,7,0,0,1-.07-.79c0-.1.07-.17.22-.21a1.4,1.4,0,0,1,.45,0l.36,0q2.29,0,2.29-1.4,0-.67-1-1.22a18.7,18.7,0,0,1-1.88-1.1,2.82,2.82,0,0,1-1-2.25,3.33,3.33,0,0,1,1.37-2.83,5.13,5.13,0,0,1,3.12-.91.26.26,0,0,1,.25.16,8.19,8.19,0,0,1,.3,1,6,6,0,0,1,.22,1c0,.09-.08.15-.23.17l-1.56.21q-.93.25-.93,1,0,.54,1,1.1a11.29,11.29,0,0,1,1.84,1.17A3.19,3.19,0,0,1,1140.18,484.43Z" transform="translate(-435.01 -344.61)"/><path class="cls-4" d="M1153.55,471.27q0,1.56-.14,4.68t-.14,4.67q0,4.78.21,7.24V488c0,.08-.1.13-.33.16a4.21,4.21,0,0,1-.65,0l-.47,0-.53,0-.53,0c-.11,0-.18-.28-.2-.84a2.48,2.48,0,0,0-.09-.85.71.71,0,0,0-.18.16,5.11,5.11,0,0,1-7.83-.07,6.33,6.33,0,0,1-1.49-4.24,6.43,6.43,0,0,1,1.5-4.33,5.14,5.14,0,0,1,4.1-1.84,4.18,4.18,0,0,1,2.66.9l1,.91a.16.16,0,0,0,.1-.17V473.9q0-.4,0-1.21t0-1.22c0-.19.07-.29.19-.29q.45,0,1.33-.08c.59-.05,1-.08,1.32-.08C1153.49,471,1153.55,471.1,1153.55,471.27Zm-3,11a3.93,3.93,0,0,0-.9-2.55,2.94,2.94,0,0,0-2.37-1.17,3.06,3.06,0,0,0-2.46,1.16,3.92,3.92,0,0,0-.92,2.61,3.69,3.69,0,0,0,1,2.53,3.07,3.07,0,0,0,2.42,1.14,3,3,0,0,0,2.4-1.15A4,4,0,0,0,1150.53,482.29Z" transform="translate(-435.01 -344.61)"/><path class="cls-4" d="M1167.48,477.2a1.52,1.52,0,0,1,0,.22,29,29,0,0,0-.47,4.78q0,.12.3,5.44v.17q0,.35-.32.35a9.2,9.2,0,0,0-1,.08,9.58,9.58,0,0,1-1,.08q-.23,0-.35-.85c-.08-.57-.16-.85-.23-.85a3.11,3.11,0,0,0-.65.47,7.15,7.15,0,0,1-1.33.88,4.2,4.2,0,0,1-1.91.48,5,5,0,0,1-4-1.88,6.25,6.25,0,0,1-1.53-4.18,6.5,6.5,0,0,1,1.54-4.44,5.37,5.37,0,0,1,4.24-1.83,4.6,4.6,0,0,1,3.23,1.28q.21.24.64.7a.1.1,0,0,0,.07,0s.12-.25.21-.76.2-.76.34-.76a7.48,7.48,0,0,1,1.22.18Q1167.48,477,1167.48,477.2Zm-3.09,5.06a3.87,3.87,0,0,0-.88-2.55,2.93,2.93,0,0,0-2.38-1.15,3,3,0,0,0-2.42,1.14,3.82,3.82,0,0,0-.93,2.57,3.76,3.76,0,0,0,.93,2.54,3.06,3.06,0,0,0,2.42,1.13,3,3,0,0,0,2.37-1.15A3.82,3.82,0,0,0,1164.39,482.26Z" transform="translate(-435.01 -344.61)"/><path class="cls-4" d="M1179.64,479.73a13.55,13.55,0,0,1-.12,2.47,41.82,41.82,0,0,1-3,4.75,49.91,49.91,0,0,1-3.37,4.7q-.48.44-3.12.44a.78.78,0,0,1-.4-.07,3.69,3.69,0,0,1-.41-.88,4.66,4.66,0,0,1-.32-1q0-.27.64-.27a4,4,0,0,0,2-.39,3,3,0,0,0,.66-.84,2.45,2.45,0,0,0,.44-.94,10.86,10.86,0,0,0-1.76-2.55,16.63,16.63,0,0,1-2.07-3,9.71,9.71,0,0,1-.17-2.37q0-.46,0-1.39t0-1.4c0-.18.1-.27.29-.27s.64,0,1.14,0,.89,0,1.14,0,.19.09.19.25,0,.57,0,1,0,.79,0,1a18.28,18.28,0,0,0,.1,2.2,9.35,9.35,0,0,0,1.32,2.29q1.25,1.83,1.54,1.83t1.31-1.8a10.52,10.52,0,0,0,1.17-2.22,16.54,16.54,0,0,0,.1-2.2c0-.23,0-.58-.07-1s-.07-.8-.07-1,.07-.3.19-.3.65,0,1.17-.05.91-.05,1.17-.05S1179.64,477.77,1179.64,479.73Z" transform="translate(-435.01 -344.61)"/><path class="cls-4" d="M1265.82,474.12c0,.15-.08.23-.25.23q-.94,0-3.1-.11t-3.1-.07h-.88a7.2,7.2,0,0,0-.9,0c-.16.06-.24.32-.24.76v2.92q0,.82.35.82,1.17,0,3.54-.11t3.54-.11c.17,0,.25.06.25.19s0,.34,0,.61,0,.47,0,.61,0,.36,0,.66,0,.51,0,.66-.09.15-.25.15q-.84,0-2.54,0t-2.55,0q-1.56,0-1.77,0c-.36,0-.55.19-.55.45q0,1.09.06,3.27t.06,3.27c0,.24-.1.36-.29.36a7,7,0,0,1-.72-.05,6.8,6.8,0,0,0-.73-.05l-.63,0-.63,0c-.2,0-.3-.09-.3-.27q0-1.34.12-4t.12-4q0-1.25-.25-8.11V472c0-.17.09-.27.3-.29l1.54,0q1.9,0,3.52,0,2.19,0,5.58-.24a.42.42,0,0,1,.52.4,8.71,8.71,0,0,0,0,1A10.4,10.4,0,0,1,1265.82,474.12Z" transform="translate(-435.01 -344.61)"/><path class="cls-4" d="M1274.3,477.25a14.79,14.79,0,0,1-.18,2.42c0,.19-.1.28-.24.28s-.43,0-.77-.05-.6-.05-.78-.05q-1.52,0-1.95.86a5.86,5.86,0,0,0-.25,2.17v1.33q0,.68.05,2.06t.05,2.06c0,.22-.09.33-.28.33h-2.28q-.28,0-.28-.3,0-1,0-3t0-3a16.88,16.88,0,0,0-.56-4.81.64.64,0,0,1,0-.15.21.21,0,0,1,.16-.21l1.26-.15q1.31-.24,1.21-.24c.13,0,.21.24.25.71s.11.71.22.71l.06,0,1-.63a4.47,4.47,0,0,1,1.11-.48,4.2,4.2,0,0,1,1.21-.15Q1274.3,477,1274.3,477.25Z" transform="translate(-435.01 -344.61)"/><path class="cls-4" d="M1278.78,474.14q0,1.49-1.66,1.49t-1.68-1.49a1.37,1.37,0,0,1,.52-1.1,1.83,1.83,0,0,1,2.33,0A1.37,1.37,0,0,1,1278.78,474.14Zm-.09,3.28q0,.93-.12,2.81t-.12,2.83q0,.88,0,2.64t0,2.63c0,.17-.07.25-.22.25H1276q-.25,0-.25-.5,0-.83,0-2.51t0-2.52q0-.94-.14-2.83t-.14-2.83c0-.14.09-.21.25-.21a5.71,5.71,0,0,1,.67.06,3.89,3.89,0,0,0,1.37,0,5.76,5.76,0,0,1,.68-.06C1278.63,477.19,1278.7,477.27,1278.7,477.42Z" transform="translate(-435.01 -344.61)"/><path class="cls-4" d="M1292.73,471.73q0,1.56-.14,4.68t-.14,4.67q0,4.78.21,7.24v.16c0,.08-.1.13-.33.16a4.21,4.21,0,0,1-.65,0l-.47,0-.53,0-.53,0q-.17,0-.2-.84a2.43,2.43,0,0,0-.09-.85.72.72,0,0,0-.18.16,5.11,5.11,0,0,1-7.83-.07,6.33,6.33,0,0,1-1.49-4.24,6.44,6.44,0,0,1,1.5-4.33,5.15,5.15,0,0,1,4.1-1.84,4.18,4.18,0,0,1,2.66.9l1,.91a.16.16,0,0,0,.1-.17v-3.92q0-.4,0-1.21t0-1.22q0-.29.19-.29.45,0,1.33-.08t1.32-.08Q1292.73,471.48,1292.73,471.73Zm-3,11a3.93,3.93,0,0,0-.9-2.55,3,3,0,0,0-2.37-1.17,3.06,3.06,0,0,0-2.46,1.16,3.92,3.92,0,0,0-.92,2.62,3.68,3.68,0,0,0,1,2.53,3.07,3.07,0,0,0,2.42,1.14,3,3,0,0,0,2.4-1.15A4,4,0,0,0,1289.7,482.75Z" transform="translate(-435.01 -344.61)"/><path class="cls-4" d="M1306.65,477.66a1.38,1.38,0,0,1,0,.22,29.11,29.11,0,0,0-.47,4.78q0,.12.3,5.44v.17q0,.35-.32.35a9.46,9.46,0,0,0-1,.08,9.39,9.39,0,0,1-1,.08q-.23,0-.35-.85c-.08-.57-.16-.85-.23-.85a3.15,3.15,0,0,0-.65.47,7.13,7.13,0,0,1-1.33.88,4.2,4.2,0,0,1-1.91.48,5,5,0,0,1-4-1.88,6.25,6.25,0,0,1-1.52-4.18,6.49,6.49,0,0,1,1.54-4.44,5.37,5.37,0,0,1,4.24-1.83,4.59,4.59,0,0,1,3.23,1.28c.14.16.35.4.64.7a.11.11,0,0,0,.07,0s.12-.25.21-.76.2-.76.34-.76a7.5,7.5,0,0,1,1.22.18C1306.32,477.42,1306.65,477.55,1306.65,477.66Zm-3.09,5.06a3.87,3.87,0,0,0-.88-2.56,2.94,2.94,0,0,0-2.38-1.15,3.05,3.05,0,0,0-2.42,1.14,3.83,3.83,0,0,0-.93,2.57,3.77,3.77,0,0,0,.93,2.54,3.07,3.07,0,0,0,2.42,1.13,3,3,0,0,0,2.37-1.15A3.82,3.82,0,0,0,1303.56,482.72Z" transform="translate(-435.01 -344.61)"/><path class="cls-4" d="M1318.82,480.19a13.6,13.6,0,0,1-.12,2.47,41.92,41.92,0,0,1-3,4.75,49.93,49.93,0,0,1-3.37,4.7q-.48.44-3.12.44a.79.79,0,0,1-.41-.07,3.73,3.73,0,0,1-.41-.88,4.61,4.61,0,0,1-.32-1q0-.27.64-.27a4,4,0,0,0,2-.39,3,3,0,0,0,.66-.83,2.45,2.45,0,0,0,.44-.94,10.8,10.8,0,0,0-1.76-2.55,16.5,16.5,0,0,1-2.07-3,9.72,9.72,0,0,1-.17-2.37q0-.46,0-1.39t0-1.4q0-.27.29-.27c.26,0,.64,0,1.14,0s.89,0,1.14,0,.19.08.19.25,0,.57,0,1,0,.79,0,1a18.27,18.27,0,0,0,.1,2.2,9.37,9.37,0,0,0,1.32,2.29q1.25,1.83,1.54,1.83t1.31-1.8a10.53,10.53,0,0,0,1.17-2.22,16.51,16.51,0,0,0,.1-2.2c0-.23,0-.58-.07-1s-.07-.8-.07-1,.07-.3.19-.3.65,0,1.17-.05.91-.05,1.17-.05S1318.82,478.23,1318.82,480.19Z" transform="translate(-435.01 -344.61)"/><path class="cls-4" d="M1403.4,472.06q-.24.4-.67,1.21a10.78,10.78,0,0,1-.47,1.07.22.22,0,0,1-.19.11l-1.17-.43a6,6,0,0,0-1.94-.43q-2.23,0-2.23,2,0,1.09,1.56,1.9,2.63,1.37,2.91,1.57a4.08,4.08,0,0,1,1.56,3.37,5,5,0,0,1-2.14,4.27,7.82,7.82,0,0,1-4.73,1.4q-1.31,0-1.4-.29,0-.46-.22-1.34-.1-.36-.3-1.09a.67.67,0,0,1,0-.21c0-.11.06-.17.18-.17s.49,0,.89.06.7.06.9.06q3.75,0,3.75-2.42a2.47,2.47,0,0,0-1.51-2.06q-2.76-1.57-2.82-1.63a4,4,0,0,1-1.52-3.32,4.67,4.67,0,0,1,1.48-3.61,5.34,5.34,0,0,1,3.73-1.31,9.33,9.33,0,0,1,2.23.32,6.26,6.26,0,0,1,2.06.85A.54.54,0,0,1,1403.4,472.06Z" transform="translate(-435.01 -344.61)"/><path class="cls-4" d="M1417,476.87a1.37,1.37,0,0,1,0,.22,29.11,29.11,0,0,0-.47,4.78q0,.12.3,5.44v.17q0,.35-.32.35a9.38,9.38,0,0,0-1,.08,9.35,9.35,0,0,1-1,.08c-.15,0-.27-.28-.35-.85s-.16-.85-.23-.85a3.12,3.12,0,0,0-.65.47,7.12,7.12,0,0,1-1.33.88,4.2,4.2,0,0,1-1.91.48,5,5,0,0,1-4-1.88,6.24,6.24,0,0,1-1.53-4.18,6.49,6.49,0,0,1,1.54-4.44,5.37,5.37,0,0,1,4.24-1.83,4.59,4.59,0,0,1,3.23,1.28q.21.24.64.7a.1.1,0,0,0,.07,0s.12-.25.21-.76.2-.76.34-.76a7.5,7.5,0,0,1,1.22.18Q1417,476.7,1417,476.87Zm-3.09,5.06a3.88,3.88,0,0,0-.88-2.55,2.94,2.94,0,0,0-2.38-1.15,3,3,0,0,0-2.42,1.14,3.82,3.82,0,0,0-.93,2.57,3.76,3.76,0,0,0,.93,2.54,3.06,3.06,0,0,0,2.42,1.13,3,3,0,0,0,2.37-1.15A3.82,3.82,0,0,0,1413.93,481.93Z" transform="translate(-435.01 -344.61)"/><path class="cls-4" d="M1425.73,485.6q0,.27,0,.73c0,.38-.06.63-.07.74a.94.94,0,0,1,0,.27.51.51,0,0,1-.23.17,7.69,7.69,0,0,1-3.12.47q-2.83,0-2.83-2.57,0-1,0-3.09t0-3.09a.48.48,0,0,0-.5-.53h-.88q-.25-.06-.25-1a6,6,0,0,1,0-.74.41.41,0,0,1,.39-.35h.59q.56,0,.56-.5t0-1.48q0-1,0-1.49c0-.59.11-.88.34-.88q.11,0,2.27.38.28,0,.28.27,0,.53-.08,1.6t-.08,1.6c0,.23.11.35.33.35h2.91c.14,0,.2,0,.2.15a4,4,0,0,1,0,.47,4,4,0,0,0,0,.48c0,.12,0,.31,0,.56s0,.44,0,.56-.11.23-.34.23-.81,0-1.46-.07-1.14-.07-1.46-.07c-.06,0-.11.23-.14.69s-.06,1.38-.06,2.41v1.8a3.79,3.79,0,0,0,.19,1.45,1.18,1.18,0,0,0,1.2.63,5.47,5.47,0,0,0,1.1-.16,5.51,5.51,0,0,1,1.08-.16C1425.68,485.38,1425.73,485.45,1425.73,485.6Z" transform="translate(-435.01 -344.61)"/><path class="cls-4" d="M1438.67,476.84q0,.88-.07,2.67t-.07,2.68q0,.88.05,2.65t.05,2.64a.3.3,0,0,1-.23.32q-.1,0-2.46,0c-.1,0-.16-.3-.18-.91s-.07-.91-.14-.91a.34.34,0,0,0-.18.11,6.16,6.16,0,0,1-4,1.76q-2.68,0-3.54-1.94a11.91,11.91,0,0,1-.53-4.31,21.59,21.59,0,0,1,.45-4.76q.11-.47.4-.47h2.11c.16,0,.24.09.24.27a12.68,12.68,0,0,1-.16,1.58,16.45,16.45,0,0,0-.18,1.66q0,.73,0,1.6a8.7,8.7,0,0,0,.3,2.84,2.21,2.21,0,0,0,2.31,1.31,3.28,3.28,0,0,0,1.8-.75q1.1-.79,1.14-1.51.06-.91.06-6.39c0-.39.17-.59.5-.59h2C1438.55,476.42,1438.67,476.56,1438.67,476.84Z" transform="translate(-435.01 -344.61)"/><path class="cls-4" d="M1448.07,476.46a14.77,14.77,0,0,1-.18,2.42c0,.19-.1.28-.24.28s-.43,0-.77-.05-.6-.05-.78-.05q-1.53,0-1.95.86a5.89,5.89,0,0,0-.25,2.17v1.33q0,.68.05,2.06t.05,2.06c0,.22-.09.33-.28.33h-2.28q-.28,0-.28-.3,0-1,0-3t0-3a16.88,16.88,0,0,0-.56-4.81.64.64,0,0,1,0-.14.21.21,0,0,1,.16-.21l1.26-.14q1.31-.24,1.21-.24.19,0,.25.71c0,.48.11.71.22.71l.06,0,1-.63a4.55,4.55,0,0,1,1.11-.48,4.21,4.21,0,0,1,1.21-.15C1447.75,476.2,1448.07,476.29,1448.07,476.46Z" transform="translate(-435.01 -344.61)"/><path class="cls-4" d="M1461,470.94q0,1.56-.14,4.68t-.14,4.67q0,4.78.21,7.24v.16c0,.08-.1.13-.33.16a4.47,4.47,0,0,1-.65,0l-.47,0-.53,0-.53,0q-.17,0-.2-.84a2.42,2.42,0,0,0-.09-.85.69.69,0,0,0-.18.16,5.11,5.11,0,0,1-7.83-.07,6.33,6.33,0,0,1-1.49-4.24,6.44,6.44,0,0,1,1.5-4.33,5.14,5.14,0,0,1,4.1-1.84,4.18,4.18,0,0,1,2.66.9l1,.91a.16.16,0,0,0,.1-.17v-3.92c0-.27,0-.67,0-1.21s0-.95,0-1.22.06-.29.19-.29q.45,0,1.33-.08c.59-.05,1-.08,1.32-.08C1461,470.68,1461,470.77,1461,470.94Zm-3,11a3.93,3.93,0,0,0-.9-2.55,3,3,0,0,0-2.37-1.17,3.07,3.07,0,0,0-2.46,1.16,3.92,3.92,0,0,0-.92,2.62,3.69,3.69,0,0,0,1,2.53,3.07,3.07,0,0,0,2.42,1.14,3,3,0,0,0,2.4-1.15A4,4,0,0,0,1458,482Z" transform="translate(-435.01 -344.61)"/><path class="cls-4" d="M1475,476.87a1.37,1.37,0,0,1,0,.22,29.1,29.1,0,0,0-.47,4.78q0,.12.3,5.44v.17q0,.35-.32.35a9.36,9.36,0,0,0-1,.08,9.39,9.39,0,0,1-1,.08c-.15,0-.27-.28-.35-.85s-.16-.85-.23-.85a3.14,3.14,0,0,0-.65.47,7.12,7.12,0,0,1-1.33.88,4.2,4.2,0,0,1-1.91.48,5,5,0,0,1-4-1.88,6.24,6.24,0,0,1-1.52-4.18,6.49,6.49,0,0,1,1.54-4.44,5.37,5.37,0,0,1,4.24-1.83,4.59,4.59,0,0,1,3.23,1.28c.14.16.35.39.64.7a.1.1,0,0,0,.07,0s.12-.25.21-.76.2-.76.34-.76a7.49,7.49,0,0,1,1.22.18Q1475,476.7,1475,476.87Zm-3.09,5.06a3.88,3.88,0,0,0-.88-2.55,2.94,2.94,0,0,0-2.38-1.15,3.05,3.05,0,0,0-2.42,1.14,3.82,3.82,0,0,0-.93,2.57,3.76,3.76,0,0,0,.93,2.54,3.06,3.06,0,0,0,2.42,1.13,3,3,0,0,0,2.37-1.15A3.82,3.82,0,0,0,1471.87,481.93Z" transform="translate(-435.01 -344.61)"/><path class="cls-4" d="M1487.12,479.4a13.62,13.62,0,0,1-.12,2.47,42.08,42.08,0,0,1-3,4.75,49.9,49.9,0,0,1-3.37,4.7q-.48.44-3.12.44a.8.8,0,0,1-.41-.07,3.7,3.7,0,0,1-.41-.88,4.62,4.62,0,0,1-.32-1c0-.18.21-.27.64-.27a4,4,0,0,0,2-.39,3,3,0,0,0,.66-.83,2.46,2.46,0,0,0,.44-.94,10.82,10.82,0,0,0-1.76-2.55,16.59,16.59,0,0,1-2.07-3,9.74,9.74,0,0,1-.17-2.37c0-.31,0-.77,0-1.38s0-1.08,0-1.4.1-.27.29-.27.64,0,1.14,0,.89,0,1.14,0,.19.08.19.25,0,.56,0,1,0,.79,0,1a18.28,18.28,0,0,0,.1,2.2,9.33,9.33,0,0,0,1.32,2.29q1.25,1.83,1.54,1.83t1.31-1.8a10.53,10.53,0,0,0,1.17-2.22,16.44,16.44,0,0,0,.1-2.2c0-.23,0-.58-.07-1s-.07-.8-.07-1,.06-.3.19-.3.65,0,1.17-.05.91-.05,1.17-.05S1487.12,477.44,1487.12,479.4Z" transform="translate(-435.01 -344.61)"/><path class="cls-4" d="M941.41,477q0,.09-2.36,5-.79,1.72-2.42,5.14-.15.32-.32.32H934.2q-.22,0-.37-.32-.87-2-2.51-6.46-.81,2.17-2.53,6.46-.13.32-.35.32h-2.11q-.18,0-.33-.32l-2.44-5.14a42.71,42.71,0,0,1-2.25-5q0-1,.06-2.91t.06-2.91c0-.14.1-.21.29-.21l.64,0,.64,0,.6,0,.6,0c.16,0,.25.06.25.18q0,1-.11,2.88t-.11,2.88q0,.6,2.38,5.45a10.24,10.24,0,0,0,.86,1.6.19.19,0,0,0,.06-.08q.14-.27.6-1.51.85-2.3,1.74-5.22,0-.3,0-1.86,0-.69,0-2.08t0-2.08c0-.12.08-.18.25-.18l.67,0,.68,0,.6,0,.6,0c.18,0,.27.06.27.19q0,.74,0,2.23t0,2.23q0,1.21,0,1.47a40,40,0,0,0,1.78,5.17c.13.35.33.84.61,1.48a.17.17,0,0,0,0,.08,9.83,9.83,0,0,0,.84-1.57q2.32-4.75,2.32-5.36,0-1-.11-2.89t-.11-2.88c0-.12,0-.18.09-.18l.7,0,.7,0,.65,0,.66,0c.16,0,.26,0,.28.14v.33q0,.93.06,2.78T941.41,477Z" transform="translate(-435.01 -344.61)"/><path class="cls-4" d="M953.31,481.2a1.14,1.14,0,0,1-.75,1.17q-.51.19-7.3.69a2.66,2.66,0,0,0,1.14,1.77,3.35,3.35,0,0,0,2,.69,5.46,5.46,0,0,0,3.42-1.2l.38-.31a.22.22,0,0,1,.12,0s.17.29.44.82a6.94,6.94,0,0,1,.41.85s-.06.14-.19.27a6.46,6.46,0,0,1-8.8.21,5.9,5.9,0,0,1-1.63-4.36,6.27,6.27,0,0,1,1.56-4.23,5.14,5.14,0,0,1,4-1.87,4.81,4.81,0,0,1,3.7,1.63A5.48,5.48,0,0,1,953.31,481.2Zm-2.81-.72a2.36,2.36,0,0,0-.77-1.73A2.43,2.43,0,0,0,948,478a2.61,2.61,0,0,0-1.93.87,2.75,2.75,0,0,0-.84,2c0,.16.14.25.42.25a29.64,29.64,0,0,0,4.17-.35C950.27,480.65,950.5,480.57,950.5,480.48Z" transform="translate(-435.01 -344.61)"/><path class="cls-4" d="M966.28,471.08q0,1.52-.14,4.55t-.14,4.54q0,4.66.2,7v.15c0,.08-.1.13-.32.15a4,4,0,0,1-.64,0l-.46,0-.52,0-.52,0c-.11,0-.17-.27-.2-.82a2.35,2.35,0,0,0-.09-.83.66.66,0,0,0-.18.15,5,5,0,0,1-7.63-.07,6.16,6.16,0,0,1-1.45-4.12,6.27,6.27,0,0,1,1.46-4.22,5,5,0,0,1,4-1.79,4.07,4.07,0,0,1,2.59.87l1,.88a.15.15,0,0,0,.09-.16v-3.82c0-.26,0-.65,0-1.18s0-.92,0-1.19.06-.28.19-.28q.44,0,1.3-.08t1.29-.08C966.21,470.83,966.28,470.92,966.28,471.08Zm-2.95,10.73a3.83,3.83,0,0,0-.87-2.49,2.87,2.87,0,0,0-2.31-1.14,3,3,0,0,0-2.39,1.13,3.82,3.82,0,0,0-.9,2.55,3.59,3.59,0,0,0,.93,2.46,3,3,0,0,0,2.36,1.11,2.89,2.89,0,0,0,2.33-1.12A3.85,3.85,0,0,0,963.34,481.81Z" transform="translate(-435.01 -344.61)"/><path class="cls-4" d="M978.76,487.29c0,.17-.08.26-.24.26h-2.32c-.14,0-.21-.11-.21-.34q0-.58,0-1.76t0-1.77q0-.47,0-1.41t0-1.41a3.43,3.43,0,0,0-.39-1.9,2,2,0,0,0-1.74-.66,3.48,3.48,0,0,0-1.64.66q-1.11.69-1.11,1.24v7.07c0,.2-.07.3-.22.3h-2.26c-.17,0-.25-.09-.25-.27q0-.93,0-2.79t0-2.81A19,19,0,0,0,968,477a.56.56,0,0,1,0-.15c0-.08.05-.13.15-.17l1.35-.22,1.33-.21s.08.06.09.19a7.55,7.55,0,0,0,.27,1.47q.61-.48,1.61-1.2a4.6,4.6,0,0,1,2.39-.75,3.31,3.31,0,0,1,3,1.28,5.88,5.88,0,0,1,.6,3.05c0,.24,0,.62,0,1.12s0,.88,0,1.13q0,.79,0,2.36T978.76,487.29Z" transform="translate(-435.01 -344.61)"/><path class="cls-4" d="M991,481.2a1.14,1.14,0,0,1-.75,1.17q-.51.19-7.29.69a2.66,2.66,0,0,0,1.14,1.77,3.36,3.36,0,0,0,2,.69,5.47,5.47,0,0,0,3.42-1.2l.38-.31a.22.22,0,0,1,.12,0s.17.29.44.82a6.81,6.81,0,0,1,.41.85s-.06.14-.19.27a6.46,6.46,0,0,1-8.8.21,5.9,5.9,0,0,1-1.63-4.36,6.28,6.28,0,0,1,1.56-4.23,5.14,5.14,0,0,1,4-1.87,4.81,4.81,0,0,1,3.7,1.63A5.48,5.48,0,0,1,991,481.2Zm-2.81-.72a2.36,2.36,0,0,0-.77-1.73,2.43,2.43,0,0,0-1.74-.75,2.61,2.61,0,0,0-1.93.87,2.75,2.75,0,0,0-.84,2c0,.16.14.25.42.25a29.63,29.63,0,0,0,4.17-.35C988,480.65,988.18,480.57,988.18,480.48Z" transform="translate(-435.01 -344.61)"/><path class="cls-4" d="M998.15,483.9a3.36,3.36,0,0,1-1.4,2.82,5,5,0,0,1-3.1,1,4.45,4.45,0,0,1-.8,0c-.13-.06-.2-.25-.2-.58a6.94,6.94,0,0,0-.06-.78,7,7,0,0,1-.07-.77c0-.1.07-.17.21-.2a1.33,1.33,0,0,1,.44,0l.35,0q2.23,0,2.23-1.37,0-.65-1-1.19a18.31,18.31,0,0,1-1.83-1.07,2.75,2.75,0,0,1-1-2.19,3.24,3.24,0,0,1,1.33-2.76,5,5,0,0,1,3-.88.25.25,0,0,1,.24.15,7.86,7.86,0,0,1,.29,1,6,6,0,0,1,.22,1c0,.09-.07.14-.22.17l-1.52.2q-.91.25-.91,1,0,.53,1,1.07a11.09,11.09,0,0,1,1.79,1.14A3.11,3.11,0,0,1,998.15,483.9Z" transform="translate(-435.01 -344.61)"/><path class="cls-4" d="M1011.18,471.08q0,1.52-.13,4.55t-.13,4.54q0,4.66.2,7v.15c0,.08-.1.13-.32.15a4,4,0,0,1-.64,0l-.46,0-.52,0-.52,0c-.11,0-.18-.27-.2-.82a2.38,2.38,0,0,0-.09-.83.68.68,0,0,0-.18.15,5,5,0,0,1-7.63-.07,6.16,6.16,0,0,1-1.45-4.12,6.27,6.27,0,0,1,1.46-4.22,5,5,0,0,1,4-1.79,4.06,4.06,0,0,1,2.59.87l1,.88a.15.15,0,0,0,.09-.16v-3.82c0-.26,0-.65,0-1.18s0-.92,0-1.19.06-.28.19-.28q.44,0,1.3-.08t1.29-.08C1011.11,470.83,1011.18,470.92,1011.18,471.08Zm-2.95,10.73a3.83,3.83,0,0,0-.87-2.49,2.87,2.87,0,0,0-2.31-1.14,3,3,0,0,0-2.39,1.13,3.82,3.82,0,0,0-.9,2.55,3.59,3.59,0,0,0,.93,2.46,3,3,0,0,0,2.36,1.11,2.89,2.89,0,0,0,2.33-1.12A3.85,3.85,0,0,0,1008.23,481.81Z" transform="translate(-435.01 -344.61)"/><path class="cls-4" d="M1024.73,476.86a1.33,1.33,0,0,1,0,.21,28.41,28.41,0,0,0-.46,4.66q0,.12.29,5.29v.16q0,.34-.31.34a9.05,9.05,0,0,0-1,.08,9.25,9.25,0,0,1-1,.08q-.22,0-.34-.83c-.08-.55-.15-.83-.22-.83a3.1,3.1,0,0,0-.64.46,6.88,6.88,0,0,1-1.3.86,4.08,4.08,0,0,1-1.86.47,4.89,4.89,0,0,1-3.85-1.83,6.08,6.08,0,0,1-1.49-4.07,6.33,6.33,0,0,1,1.5-4.33,5.23,5.23,0,0,1,4.13-1.78,4.48,4.48,0,0,1,3.15,1.25q.2.24.63.68a.1.1,0,0,0,.07,0s.11-.25.2-.74.2-.74.33-.74a7.33,7.33,0,0,1,1.19.18C1024.41,476.62,1024.73,476.75,1024.73,476.86Zm-3,4.93a3.77,3.77,0,0,0-.86-2.49,2.86,2.86,0,0,0-2.32-1.12,3,3,0,0,0-2.36,1.11,3.73,3.73,0,0,0-.91,2.5,3.66,3.66,0,0,0,.91,2.48,3,3,0,0,0,2.36,1.1,2.89,2.89,0,0,0,2.31-1.12A3.72,3.72,0,0,0,1021.73,481.79Z" transform="translate(-435.01 -344.61)"/><path class="cls-4" d="M1036.58,479.32a13.29,13.29,0,0,1-.12,2.41,40.84,40.84,0,0,1-2.92,4.63,48.86,48.86,0,0,1-3.28,4.58q-.47.42-3,.42a.76.76,0,0,1-.39-.06,3.5,3.5,0,0,1-.4-.86,4.59,4.59,0,0,1-.31-.94c0-.17.21-.26.63-.26a3.87,3.87,0,0,0,1.95-.38,2.89,2.89,0,0,0,.64-.81,2.38,2.38,0,0,0,.43-.92,10.58,10.58,0,0,0-1.71-2.49,16.24,16.24,0,0,1-2-2.91,9.55,9.55,0,0,1-.16-2.31q0-.45,0-1.35c0-.6,0-1.06,0-1.36s.09-.26.28-.26.62,0,1.11,0,.86,0,1.11,0,.19.08.19.25,0,.55,0,1,0,.77,0,1a17.76,17.76,0,0,0,.1,2.15,9.06,9.06,0,0,0,1.28,2.23q1.21,1.78,1.5,1.78t1.27-1.75a10.16,10.16,0,0,0,1.14-2.16,15.7,15.7,0,0,0,.1-2.14,9.93,9.93,0,0,0-.07-1q-.07-.67-.07-1c0-.2.06-.29.19-.29s.63,0,1.14-.05.89-.05,1.14-.05S1036.58,477.41,1036.58,479.32Z" transform="translate(-435.01 -344.61)"/><rect class="cls-3" x="619.1" y="170.44" width="155.02" height="74.45"/><rect class="cls-3" x="155.08" y="319.35" width="155.02" height="74.45"/><rect class="cls-3" x="928.92" y="245.04" width="155.02" height="74.45"/><rect class="cls-3" x="928.92" y="393.5" width="155.02" height="74.45"/><rect class="cls-3" x="774.94" y="393.5" width="155.02" height="74.45"/><path class="cls-5" d="M662.8,543.64h-.05l-3.35,1.59-.67-3.08,4.64-2.16h3.4v17.54h-4Z" transform="translate(-435.01 -344.61)"/><path class="cls-5" d="M818.85,557.54v-2.48l2.27-2.05c3.83-3.43,5.7-5.4,5.75-7.45,0-1.43-.86-2.56-2.89-2.56a6.36,6.36,0,0,0-3.75,1.46l-1.16-2.94a9.72,9.72,0,0,1,5.75-1.81c4,0,6.16,2.32,6.16,5.51,0,2.94-2.13,5.29-4.67,7.56l-1.62,1.35v.05h6.61v3.37Z" transform="translate(-435.01 -344.61)"/><path class="cls-5" d="M964.14,553.38a9.66,9.66,0,0,0,4.08,1.08c2.13,0,3.21-1,3.21-2.35,0-1.73-1.73-2.51-3.54-2.51h-1.67v-2.94h1.59c1.38,0,3.13-.54,3.13-2,0-1.05-.86-1.84-2.59-1.84a8,8,0,0,0-3.67,1.05l-.84-3a11,11,0,0,1,5.43-1.32c3.75,0,5.83,2,5.83,4.37,0,1.86-1.05,3.32-3.21,4.08v.05a4.36,4.36,0,0,1,3.81,4.27c0,3.1-2.73,5.37-7.18,5.37a10.38,10.38,0,0,1-5.21-1.24Z" transform="translate(-435.01 -344.61)"/><path class="cls-2" d="M1132.65,561.05v-4.18h-7.77v-2.67l6.64-10.69h5v10.28h2.11v3.08h-2.11v4.18Zm0-7.26V549.9c0-1.05.05-2.13.13-3.27h-.11c-.57,1.13-1,2.16-1.62,3.27l-2.35,3.83v.05Z" transform="translate(-435.01 -344.61)"/><path class="cls-5" d="M1294.28,543.08h-6.8l-.38,2.7a7.49,7.49,0,0,1,1.13-.05,8,8,0,0,1,4.62,1.27,5,5,0,0,1,2.13,4.4c0,3.27-2.81,6.15-7.53,6.15a11.14,11.14,0,0,1-4.89-1l.73-3.08a10.08,10.08,0,0,0,4,.86c1.7,0,3.51-.81,3.51-2.67s-1.43-2.92-4.94-2.92a15.09,15.09,0,0,0-2.37.16l1.16-9.2h9.66Z" transform="translate(-435.01 -344.61)"/><path class="cls-5" d="M1432.19,546.4a11.25,11.25,0,0,0-1.59.05c-3.64.3-5.26,2.16-5.72,4.21h.08a4.94,4.94,0,0,1,3.72-1.4,5.32,5.32,0,0,1,5.43,5.72,6.28,6.28,0,0,1-6.48,6.34c-4.67,0-7-3.48-7-7.67a9.75,9.75,0,0,1,9.88-10.39,11.68,11.68,0,0,1,1.65,0Zm-2.24,8.8c0-1.62-.86-3-2.62-3a2.67,2.67,0,0,0-2.43,1.57,2.36,2.36,0,0,0-.16,1c.08,1.86,1,3.54,2.83,3.54C1429,558.31,1430,557,1430,555.2Z" transform="translate(-435.01 -344.61)"/><path class="cls-5" d="M509,618v2.59l-7.23,15h-4.35l7.23-14.12v-.05h-8V618Z" transform="translate(-435.01 -344.61)"/><path class="cls-5" d="M658.34,630.91a4.66,4.66,0,0,1,3.13-4.4v-.08a4.26,4.26,0,0,1-2.54-3.83c0-3,2.67-4.94,6.18-4.94,4.1,0,5.8,2.38,5.8,4.51a4.27,4.27,0,0,1-2.54,3.86v.08a4.64,4.64,0,0,1,3.21,4.37c0,3.18-2.67,5.32-6.75,5.32C660.4,635.8,658.34,633.29,658.34,630.91Zm9.07-.13c0-1.54-1.13-2.46-2.75-2.89a2.66,2.66,0,0,0-2.13,2.62A2.4,2.4,0,0,0,665,633,2.2,2.2,0,0,0,667.41,630.78Zm-4.62-8.31c0,1.19,1.08,1.94,2.48,2.38a2.4,2.4,0,0,0,1.78-2.24,2,2,0,0,0-2.13-2.16A2,2,0,0,0,662.8,622.46Z" transform="translate(-435.01 -344.61)"/><path class="cls-5" d="M813.84,632.54a9.71,9.71,0,0,0,1.78,0,7.06,7.06,0,0,0,3.46-1.08,5.45,5.45,0,0,0,2.21-3.24l-.08,0a4.63,4.63,0,0,1-3.51,1.27,5.29,5.29,0,0,1-5.48-5.48,6.38,6.38,0,0,1,6.61-6.32c4.51,0,6.64,3.46,6.64,7.56,0,3.64-1.16,6.32-3.08,8.07a10.38,10.38,0,0,1-6.69,2.46,14.31,14.31,0,0,1-1.86,0Zm2.48-8.8c0,1.51.81,2.81,2.48,2.81a2.58,2.58,0,0,0,2.27-1.16,1.93,1.93,0,0,0,.22-1c0-1.86-.7-3.7-2.56-3.7C817.32,620.67,816.3,621.91,816.33,623.74Z" transform="translate(-435.01 -344.61)"/><path class="cls-5" d="M960.18,621.6h-.05l-3.35,1.59-.67-3.08,4.64-2.16h3.4V635.5h-4Z" transform="translate(-435.01 -344.61)"/><path class="cls-5" d="M982.88,626.65c0,5.43-2.19,9.15-6.67,9.15s-6.53-4.08-6.56-9,2.16-9.1,6.69-9.1C981,617.66,982.88,621.84,982.88,626.65Zm-9.1.11c0,4,.94,5.94,2.54,5.94s2.46-2,2.46-6-.84-5.94-2.48-5.94S973.76,622.68,973.79,626.75Z" transform="translate(-435.01 -344.61)"/><path class="cls-5" d="M1125.33,621.6h-.05l-3.35,1.59-.67-3.08,4.64-2.16h3.4V635.5h-4Z" transform="translate(-435.01 -344.61)"/><path class="cls-5" d="M1140.31,621.6h-.05l-3.35,1.59-.67-3.08,4.64-2.16h3.4V635.5h-4Z" transform="translate(-435.01 -344.61)"/><path class="cls-5" d="M1279.23,621.75h-.05l-3.35,1.59-.67-3.08,4.64-2.16h3.4v17.54h-4Z" transform="translate(-435.01 -344.61)"/><path class="cls-5" d="M1289,635.65v-2.48l2.27-2.05c3.83-3.43,5.7-5.4,5.75-7.45,0-1.43-.86-2.56-2.89-2.56a6.36,6.36,0,0,0-3.75,1.46l-1.16-2.94a9.72,9.72,0,0,1,5.75-1.81c4,0,6.16,2.32,6.16,5.51,0,2.94-2.13,5.29-4.67,7.56l-1.62,1.35v.05h6.61v3.37Z" transform="translate(-435.01 -344.61)"/><path class="cls-2" d="M1426.46,621.6h-.05l-3.35,1.59-.67-3.08L1427,618h3.4V635.5h-4Z" transform="translate(-435.01 -344.61)"/><path class="cls-2" d="M1436.94,631.48a9.68,9.68,0,0,0,4.08,1.08c2.13,0,3.21-1,3.21-2.35,0-1.73-1.73-2.51-3.54-2.51H1439v-2.94h1.59c1.38,0,3.13-.54,3.13-2,0-1.05-.86-1.84-2.59-1.84a8,8,0,0,0-3.67,1.05l-.84-3a11,11,0,0,1,5.43-1.32c3.75,0,5.83,2,5.83,4.37,0,1.86-1.05,3.32-3.21,4.08v.05a4.36,4.36,0,0,1,3.81,4.27c0,3.1-2.73,5.37-7.18,5.37a10.37,10.37,0,0,1-5.21-1.24Z" transform="translate(-435.01 -344.61)"/><path class="cls-5" d="M493.46,696h-.05l-3.35,1.59-.67-3.08,4.64-2.16h3.4V710h-4Z" transform="translate(-435.01 -344.61)"/><path class="cls-5" d="M510.47,710v-4.18H502.7v-2.67l6.64-10.69h5v10.28h2.11v3.08h-2.11V710Zm0-7.26V698.8c0-1.05.05-2.13.13-3.27h-.11c-.57,1.13-1,2.16-1.62,3.27l-2.35,3.83v.05Z" transform="translate(-435.01 -344.61)"/><path class="cls-2" d="M654.42,692.89h-.05L651,694.48l-.67-3.08,4.64-2.16h3.4v17.54h-4Z" transform="translate(-435.01 -344.61)"/><path class="cls-2" d="M675.88,692.62h-6.8l-.38,2.7a7.49,7.49,0,0,1,1.13-.05,8,8,0,0,1,4.62,1.27,5,5,0,0,1,2.13,4.4c0,3.27-2.81,6.15-7.53,6.15a11.14,11.14,0,0,1-4.89-1l.73-3.08a10.08,10.08,0,0,0,4,.86c1.7,0,3.51-.81,3.51-2.67s-1.43-2.91-4.94-2.91a15.09,15.09,0,0,0-2.37.16l1.16-9.2h9.66Z" transform="translate(-435.01 -344.61)"/><path class="cls-5" d="M807,693.39H807L803.61,695l-.67-3.08,4.64-2.16H811v17.54h-4Z" transform="translate(-435.01 -344.61)"/><path class="cls-5" d="M828,692.66a11.26,11.26,0,0,0-1.59.05c-3.64.3-5.26,2.16-5.72,4.21h.08a4.94,4.94,0,0,1,3.72-1.4,5.32,5.32,0,0,1,5.43,5.72,6.28,6.28,0,0,1-6.48,6.34c-4.67,0-7-3.48-7-7.67a9.75,9.75,0,0,1,9.88-10.39,11.68,11.68,0,0,1,1.65,0Zm-2.24,8.8c0-1.62-.86-3-2.62-3a2.68,2.68,0,0,0-2.43,1.57,2.36,2.36,0,0,0-.16,1c.08,1.86,1,3.54,2.83,3.54C824.81,704.56,825.73,703.24,825.73,701.46Z" transform="translate(-435.01 -344.61)"/><path class="cls-5" d="M964.22,693.4h-.05L960.82,695l-.67-3.08,4.64-2.16h3.4v17.54h-4Z" transform="translate(-435.01 -344.61)"/><path class="cls-5" d="M986.54,689.76v2.59l-7.23,15H975l7.23-14.12v-.05h-8v-3.37Z" transform="translate(-435.01 -344.61)"/><path class="cls-5" d="M1125,692.89H1125l-3.35,1.59-.67-3.08,4.64-2.16h3.4v17.54h-4Z" transform="translate(-435.01 -344.61)"/><path class="cls-5" d="M1134.51,702.2a4.66,4.66,0,0,1,3.13-4.4v-.08a4.26,4.26,0,0,1-2.54-3.83c0-3,2.67-4.94,6.18-4.94,4.1,0,5.8,2.38,5.8,4.51a4.27,4.27,0,0,1-2.54,3.86v.08a4.64,4.64,0,0,1,3.21,4.37c0,3.18-2.67,5.32-6.75,5.32C1136.56,707.08,1134.51,704.57,1134.51,702.2Zm9.07-.13c0-1.54-1.13-2.46-2.75-2.89a2.66,2.66,0,0,0-2.13,2.62,2.4,2.4,0,0,0,2.48,2.46A2.2,2.2,0,0,0,1143.58,702.06Zm-4.62-8.31c0,1.19,1.08,1.94,2.48,2.38a2.4,2.4,0,0,0,1.78-2.24,2,2,0,0,0-2.13-2.16A2,2,0,0,0,1139,693.75Z" transform="translate(-435.01 -344.61)"/><path class="cls-5" d="M1277,696.06h-.05l-3.35,1.59-.67-3.08,4.64-2.16h3.4V710h-4Z" transform="translate(-435.01 -344.61)"/><path class="cls-5" d="M1288,707a9.71,9.71,0,0,0,1.78,0,7.06,7.06,0,0,0,3.46-1.08,5.45,5.45,0,0,0,2.21-3.24l-.08,0a4.63,4.63,0,0,1-3.51,1.27,5.29,5.29,0,0,1-5.48-5.48,6.38,6.38,0,0,1,6.61-6.32c4.51,0,6.64,3.46,6.64,7.56,0,3.64-1.16,6.32-3.08,8.07a10.38,10.38,0,0,1-6.69,2.46,14.31,14.31,0,0,1-1.86,0Zm2.48-8.8c0,1.51.81,2.81,2.48,2.81a2.58,2.58,0,0,0,2.27-1.16,1.93,1.93,0,0,0,.22-1c0-1.86-.7-3.7-2.56-3.7C1291.53,695.12,1290.5,696.36,1290.53,698.19Z" transform="translate(-435.01 -344.61)"/><path class="cls-5" d="M1424,710v-2.48l2.27-2.05c3.83-3.43,5.7-5.4,5.75-7.45,0-1.43-.86-2.56-2.89-2.56a6.36,6.36,0,0,0-3.75,1.46l-1.16-2.94a9.72,9.72,0,0,1,5.75-1.81c4,0,6.16,2.32,6.16,5.51,0,2.94-2.13,5.29-4.67,7.56l-1.62,1.35v.05h6.61V710Z" transform="translate(-435.01 -344.61)"/><path class="cls-5" d="M1452,701.11c0,5.43-2.19,9.15-6.67,9.15s-6.53-4.08-6.56-9,2.16-9.1,6.69-9.1C1450.12,692.12,1452,696.3,1452,701.11Zm-9.1.11c0,4,.94,5.94,2.54,5.94s2.46-2,2.46-6-.84-5.94-2.48-5.94S1442.83,697.14,1442.85,701.22Z" transform="translate(-435.01 -344.61)"/><path class="cls-5" d="M496.91,784.55v-2.48l2.27-2.05c3.83-3.43,5.7-5.4,5.75-7.45,0-1.43-.86-2.56-2.89-2.56a6.36,6.36,0,0,0-3.75,1.46l-1.16-2.94a9.72,9.72,0,0,1,5.75-1.81c4,0,6.16,2.32,6.16,5.51,0,2.94-2.13,5.29-4.67,7.56l-1.62,1.35v.05h6.61v3.37Z" transform="translate(-435.01 -344.61)"/><path class="cls-5" d="M517.13,770.65h-.05l-3.35,1.59-.67-3.08L517.7,767h3.4v17.54h-4Z" transform="translate(-435.01 -344.61)"/><path class="cls-5" d="M646.46,784.55v-2.48l2.27-2.05c3.83-3.43,5.7-5.4,5.75-7.45,0-1.43-.86-2.56-2.89-2.56a6.36,6.36,0,0,0-3.75,1.46l-1.16-2.94a9.72,9.72,0,0,1,5.75-1.81c4,0,6.16,2.32,6.16,5.51,0,2.94-2.13,5.29-4.67,7.56l-1.62,1.35v.05h6.61v3.37Z" transform="translate(-435.01 -344.61)"/><path class="cls-5" d="M661.44,784.55v-2.48l2.27-2.05c3.83-3.43,5.7-5.4,5.75-7.45,0-1.43-.86-2.56-2.89-2.56a6.36,6.36,0,0,0-3.75,1.46l-1.16-2.94a9.72,9.72,0,0,1,5.75-1.81c4,0,6.16,2.32,6.16,5.51,0,2.94-2.13,5.29-4.67,7.56l-1.62,1.35v.05h6.61v3.37Z" transform="translate(-435.01 -344.61)"/><path class="cls-5" d="M804,784.55v-2.48l2.27-2.05c3.83-3.43,5.7-5.4,5.75-7.45,0-1.43-.86-2.56-2.89-2.56a6.36,6.36,0,0,0-3.75,1.46l-1.16-2.94a9.72,9.72,0,0,1,5.75-1.81c4,0,6.16,2.32,6.16,5.51,0,2.94-2.13,5.29-4.67,7.56l-1.62,1.35v.05h6.61v3.37Z" transform="translate(-435.01 -344.61)"/><path class="cls-5" d="M819.71,780.53a9.68,9.68,0,0,0,4.08,1.08c2.13,0,3.21-1,3.21-2.35,0-1.73-1.73-2.51-3.54-2.51h-1.67v-2.94h1.59c1.38,0,3.13-.54,3.13-2,0-1.05-.86-1.84-2.59-1.84a8,8,0,0,0-3.67,1.05l-.84-3a11,11,0,0,1,5.43-1.32c3.75,0,5.83,2,5.83,4.37,0,1.86-1.05,3.32-3.21,4.08v.05a4.36,4.36,0,0,1,3.81,4.27c0,3.1-2.73,5.37-7.18,5.37a10.37,10.37,0,0,1-5.21-1.24Z" transform="translate(-435.01 -344.61)"/><path class="cls-5" d="M960,784.55v-2.48L962.3,780c3.83-3.43,5.7-5.4,5.75-7.45,0-1.43-.86-2.56-2.89-2.56a6.36,6.36,0,0,0-3.75,1.46l-1.16-2.94a9.72,9.72,0,0,1,5.75-1.81c4,0,6.16,2.32,6.16,5.51,0,2.94-2.13,5.29-4.67,7.56l-1.62,1.35v.05h6.61v3.37Z" transform="translate(-435.01 -344.61)"/><path class="cls-5" d="M982.28,784.55v-4.18h-7.77v-2.67L981.15,767h5v10.28h2.11v3.08h-2.11v4.18Zm0-7.26V773.4c0-1.05.05-2.13.13-3.27h-.11c-.57,1.13-1,2.16-1.62,3.27l-2.35,3.83v.05Z" transform="translate(-435.01 -344.61)"/><path class="cls-5" d="M1120.81,784.4v-2.48l2.27-2.05c3.83-3.43,5.7-5.4,5.75-7.45,0-1.43-.86-2.56-2.89-2.56a6.36,6.36,0,0,0-3.75,1.46l-1.16-2.94a9.72,9.72,0,0,1,5.75-1.81c4,0,6.16,2.32,6.16,5.51,0,2.94-2.13,5.29-4.67,7.56l-1.62,1.35V781h6.61v3.37Z" transform="translate(-435.01 -344.61)"/><path class="cls-5" d="M1147.51,770.23h-6.8l-.38,2.7a7.49,7.49,0,0,1,1.13-.05,8,8,0,0,1,4.62,1.27,5,5,0,0,1,2.13,4.4c0,3.27-2.81,6.15-7.53,6.15a11.14,11.14,0,0,1-4.89-1l.73-3.08a10.08,10.08,0,0,0,4,.86c1.7,0,3.51-.81,3.51-2.67s-1.43-2.92-4.94-2.92a15.09,15.09,0,0,0-2.37.16l1.16-9.2h9.66Z" transform="translate(-435.01 -344.61)"/><path class="cls-2" d="M1270.78,784.25v-2.48l2.27-2.05c3.83-3.43,5.7-5.4,5.75-7.45,0-1.43-.86-2.56-2.89-2.56a6.36,6.36,0,0,0-3.75,1.46l-1.16-2.94a9.72,9.72,0,0,1,5.75-1.81c4,0,6.16,2.32,6.16,5.51,0,2.94-2.13,5.29-4.67,7.56l-1.62,1.35v.05h6.61v3.37Z" transform="translate(-435.01 -344.61)"/><path class="cls-2" d="M1297,769.62a11.27,11.27,0,0,0-1.59.05c-3.64.3-5.26,2.16-5.72,4.21h.08a4.94,4.94,0,0,1,3.72-1.4,5.32,5.32,0,0,1,5.43,5.72,6.28,6.28,0,0,1-6.48,6.34c-4.67,0-7-3.48-7-7.67a9.75,9.75,0,0,1,9.88-10.39,11.7,11.7,0,0,1,1.65,0Zm-2.24,8.8c0-1.62-.86-3-2.62-3a2.68,2.68,0,0,0-2.43,1.57,2.36,2.36,0,0,0-.16,1c.08,1.86,1,3.54,2.83,3.54C1293.81,781.53,1294.72,780.2,1294.72,778.42Z" transform="translate(-435.01 -344.61)"/><path class="cls-2" d="M1425.81,784.7v-2.48l2.27-2.05c3.83-3.43,5.7-5.4,5.75-7.45,0-1.43-.86-2.56-2.89-2.56a6.36,6.36,0,0,0-3.75,1.46l-1.16-2.94a9.72,9.72,0,0,1,5.75-1.81c4,0,6.16,2.32,6.16,5.51,0,2.94-2.13,5.29-4.67,7.56l-1.62,1.35v.05h6.61v3.37Z" transform="translate(-435.01 -344.61)"/><path class="cls-2" d="M1453.37,767.15v2.59l-7.23,15h-4.35l7.23-14.12v-.05h-8v-3.37Z" transform="translate(-435.01 -344.61)"/></svg>