<svg id="Layer_1" data-name="Layer 1" xmlns="http://www.w3.org/2000/svg" viewBox="0 0 500.45 812.12"><defs><style>.cls-1{fill:#fff;}.cls-2{fill:#fff3d2;}.cls-3{fill:#808285;}.cls-4{fill:#139fc3;}.cls-5{fill:#de2427;}.cls-6{fill:#231f20;}.cls-7{fill:#a7a9ac;}</style></defs><rect class="cls-1" y="0.34" width="500.45" height="811.21"/><polygon class="cls-2" points="428.96 128.58 357.46 128.58 285.97 128.58 214.48 128.58 142.99 128.58 71.49 128.58 0 128.58 0 242.69 71.49 242.69 142.99 242.69 214.48 242.69 285.97 242.69 357.46 242.69 428.96 242.69 500.45 242.69 500.45 128.58 428.96 128.58"/><path class="cls-3" d="M151,374.69V486.79H81.55V374.69H151m1-1H80.55V487.79H152V373.69Z" transform="translate(-80.55 -131)"/><rect class="cls-4" x="1.49" width="498.96" height="131.1"/><path class="cls-3" d="M222.54,374.69V486.79H153V374.69h69.49m1-1H152V487.79h71.49V373.69Z" transform="translate(-80.55 -131)"/><path class="cls-3" d="M294,374.69V486.79H224.54V374.69H294m1-1H223.54V487.79H295V373.69Z" transform="translate(-80.55 -131)"/><path class="cls-3" d="M365.52,374.69V486.79H296V374.69h69.49m1-1H295V487.79h71.49V373.69Z" transform="translate(-80.55 -131)"/><path class="cls-3" d="M437,374.69V486.79H367.52V374.69H437m1-1H366.52V487.79H438V373.69Z" transform="translate(-80.55 -131)"/><path class="cls-3" d="M508.51,374.69V486.79H439V374.69h69.49m1-1H438V487.79h71.49V373.69Z" transform="translate(-80.55 -131)"/><rect class="cls-5" x="428.96" y="242.69" width="71.49" height="114.11"/><path class="cls-3" d="M151,488.79V600.9H81.55V488.79H151m1-1H80.55V601.9H152V487.79Z" transform="translate(-80.55 -131)"/><path class="cls-3" d="M222.54,488.79V600.9H153V488.79h69.49m1-1H152V601.9h71.49V487.79Z" transform="translate(-80.55 -131)"/><path class="cls-3" d="M294,488.79V600.9H224.54V488.79H294m1-1H223.54V601.9H295V487.79Z" transform="translate(-80.55 -131)"/><path class="cls-3" d="M365.52,488.79V600.9H296V488.79h69.49m1-1H295V601.9h71.49V487.79Z" transform="translate(-80.55 -131)"/><rect class="cls-5" x="285.97" y="356.8" width="71.49" height="114.11"/><path class="cls-3" d="M508.51,488.79V600.9H439V488.79h69.49m1-1H438V601.9h71.49V487.79Z" transform="translate(-80.55 -131)"/><path class="cls-3" d="M580,488.79V600.9H510.51V488.79H580m1-1H509.51V601.9H581V487.79Z" transform="translate(-80.55 -131)"/><path class="cls-3" d="M151,602.9V715H81.55V602.9H151m1-1H80.55V716H152V601.9Z" transform="translate(-80.55 -131)"/><rect class="cls-5" x="71.49" y="470.9" width="71.49" height="114.11"/><path class="cls-3" d="M294,602.9V715H224.54V602.9H294m1-1H223.54V716H295V601.9Z" transform="translate(-80.55 -131)"/><path class="cls-3" d="M365.52,602.9V715H296V602.9h69.49m1-1H295V716h71.49V601.9Z" transform="translate(-80.55 -131)"/><path class="cls-3" d="M437,602.9V715H367.52V602.9H437m1-1H366.52V716H438V601.9Z" transform="translate(-80.55 -131)"/><path class="cls-3" d="M508.51,602.9V715H439V602.9h69.49m1-1H438V716h71.49V601.9Z" transform="translate(-80.55 -131)"/><path class="cls-3" d="M580,602.9V715H510.51V602.9H580m1-1H509.51V716H581V601.9Z" transform="translate(-80.55 -131)"/><path class="cls-3" d="M151,717V829.12H81.55V717H151m1-1H80.55V830.12H152V716Z" transform="translate(-80.55 -131)"/><path class="cls-3" d="M222.54,717V829.12H153V717h69.49m1-1H152V830.12h71.49V716Z" transform="translate(-80.55 -131)"/><path class="cls-3" d="M294,717V829.12H224.54V717H294m1-1H223.54V830.12H295V716Z" transform="translate(-80.55 -131)"/><path class="cls-3" d="M365.52,717V829.12H296V717h69.49m1-1H295V830.12h71.49V716Z" transform="translate(-80.55 -131)"/><path class="cls-3" d="M437,717V829.12H367.52V717H437m1-1H366.52V830.12H438V716Z" transform="translate(-80.55 -131)"/><rect class="cls-5" x="357.46" y="585.01" width="71.49" height="114.11"/><path class="cls-3" d="M580,717V829.12H510.51V717H580m1-1H509.51V830.12H581V716Z" transform="translate(-80.55 -131)"/><path class="cls-1" d="M235.32,220.65q0,.55-.77.77a35.32,35.32,0,0,1-5.72.25,38.87,38.87,0,0,1-5.66-.25,1.66,1.66,0,0,1-1.32-1.38q-1-4.43-1.63-4.74a67.94,67.94,0,0,0-8.24-.22q-5.23,0-5.57.28a8.45,8.45,0,0,0-1.17,3.29q-.59,2.55-1.42,2.77a51.71,51.71,0,0,1-7,.25q-4.71,0-4.71-.89t7-19.66q7.54-20.4,8.18-22.43.37-1.17.86-1.17.83,0,2.57.15t2.6.15q.83,0,2.45-.11t2.42-.11q.58,0,1.08,1,1.51,3.23,8.8,22.15T235.32,220.65Zm-21.81-28q-.65,1.35-2.18,5.88a31.81,31.81,0,0,0-1.66,5.63q0,.55,1.85.62,1,.06,3.14.06,2,0,2.25-.49a1.2,1.2,0,0,0,.06-.43,30,30,0,0,0-1.42-5.6A43.54,43.54,0,0,0,213.51,192.62Z" transform="translate(-80.55 -131)"/><path class="cls-1" d="M272.17,206.62a15.78,15.78,0,0,1-3.88,10.92A13.37,13.37,0,0,1,257.8,222a12.85,12.85,0,0,1-5.08-1.17,11.69,11.69,0,0,1-2.46-1.17q-.4,0-.4.92,0,1.57.15,4.72t.15,4.72a.88.88,0,0,1-1,1l-6.28,0a14.65,14.65,0,0,1-2.74-.15,1.07,1.07,0,0,1-.92-1.14l.06-23.69A57.63,57.63,0,0,0,238.21,194a2.73,2.73,0,0,1-.06-.52.6.6,0,0,1,.37-.62,26.23,26.23,0,0,1,4.58-1,34.44,34.44,0,0,1,4.77-.52q1.2,0,1.37,1.58t.41,1.58q-.31,0,2.63-1.68a11,11,0,0,1,5.34-1.68,13.72,13.72,0,0,1,10.67,4.4Q272.17,199.82,272.17,206.62Zm-11.41-.06a6.61,6.61,0,0,0-1.51-4.31,5.06,5.06,0,0,0-4-1.94,4.7,4.7,0,0,0-3.94,1.94,7.06,7.06,0,0,0-1.29,4.31,6.81,6.81,0,0,0,1.35,4.34,4.77,4.77,0,0,0,4,1.88Q260.75,212.77,260.76,206.56Z" transform="translate(-80.55 -131)"/><path class="cls-1" d="M296.56,202.25q0,1.2-1.32,1.2c-.39,0-1,0-1.71-.08s-1.31-.08-1.68-.08a5.49,5.49,0,0,0-3.48.8q-.92.8-.92,3.23,0,1.32,0,4t0,4q0,.89.12,2.66t.12,2.63q0,.74-1,.83-1.48.12-4.52.12t-4.68-.18q-1-.12-1-1,0-2.46,0-7.37t0-7.37a44.73,44.73,0,0,0-1.32-11.9,2.15,2.15,0,0,1-.06-.46.6.6,0,0,1,.46-.62q1.69-.18,5-.68,4.86-1,5-1,.55,0,.71,1.94t.55,1.94q-.43,0,2.52-1.61a11.85,11.85,0,0,1,5.69-1.62q1.72,0,1.72.74a24,24,0,0,1-.18,2.52q-.18,1.75-.21,2.52t0,2.37Q296.56,201.67,296.56,202.25Z" transform="translate(-80.55 -131)"/><path class="cls-1" d="M311.54,207.29q0,2.25.09,6.69t.09,6.66q0,.65-.77.77a60.51,60.51,0,0,1-9.44,0q-.68-.12-.83-.4a3.5,3.5,0,0,1-.06-.92q0-2.12.09-6.38t.09-6.41a112.36,112.36,0,0,0-.68-13.9q-.06-.49-.06-.65,0-.62.83-.62t2.63.18q1.77.18,2.66.18t2.68-.15q1.78-.15,2.68-.15.74,0,.74.62c0,.08,0,.28-.06.58A125.33,125.33,0,0,0,311.54,207.29Zm.8-22.86q0,5.35-6,5.35a6.63,6.63,0,0,1-4.28-1.35,5.13,5.13,0,0,1,.06-7.94,6.5,6.5,0,0,1,4.21-1.42,6.32,6.32,0,0,1,4.15,1.45A4.84,4.84,0,0,1,312.34,184.44Z" transform="translate(-80.55 -131)"/><path class="cls-1" d="M328.68,202.9q0,8.4.06,12.89,0,.71.09,2.43.09,1.57.09,2.43,0,.65-.77.77a33.41,33.41,0,0,1-5,.25,26.56,26.56,0,0,1-4.71-.25.91.91,0,0,1-.77-.83v-1.32q0-2.74.06-8.2t.06-8.17q0-12.92,0-11.78a97.37,97.37,0,0,0-.77-11.72,3.15,3.15,0,0,1-.06-.52q0-.68.8-.68h11q.77,0,.71.65l0,.55Q328.68,192.68,328.68,202.9Z" transform="translate(-80.55 -131)"/><path class="cls-1" d="M379.5,212.65q0,.71-.15,2.12a21.35,21.35,0,0,0-.15,2.15q0,.74,0,2.32t0,2.35q0,.77-1,.77a25.65,25.65,0,0,1-2.89-.58,57.9,57.9,0,0,0-10.46-.62q-2.37,0-7.11.26t-7,.26a.79.79,0,0,1-.89-.77q-.09-1-.46-3.11a30.1,30.1,0,0,1-.77-3.6q0-.68,2.58-1a8.71,8.71,0,0,0,3.88-1.11,49.53,49.53,0,0,0,6.37-6.61q4.15-5,4.15-7.57a4.85,4.85,0,0,0-1.58-3.68,5.31,5.31,0,0,0-3.77-1.49,12.93,12.93,0,0,0-4.89,1,17.7,17.7,0,0,0-3.42,1.78,9.79,9.79,0,0,1-1.66,1q-1,0-1-2.46a17.7,17.7,0,0,0-.15-2.77,14.78,14.78,0,0,0-.46-1.66,5.55,5.55,0,0,1-.37-1.6,1,1,0,0,1,.52-.77,20,20,0,0,1,6.83-2.86,31.47,31.47,0,0,1,7.41-.92,17.46,17.46,0,0,1,9.78,2.58,9.65,9.65,0,0,1,4.64,8.58q0,7.41-11.23,17.32,8-.4,12.49-.4Q379.5,211.51,379.5,212.65Z" transform="translate(-80.55 -131)"/><path class="cls-1" d="M418.19,202.83a19.64,19.64,0,0,1-5.14,13.63,17.66,17.66,0,0,1-26.36,0,20.51,20.51,0,0,1,0-27.22,17.81,17.81,0,0,1,26.33,0A19.46,19.46,0,0,1,418.19,202.83Zm-11.41,0a8.62,8.62,0,0,0-1.85-5.51,6.47,6.47,0,0,0-10.18,0,8.6,8.6,0,0,0-1.81,5.54,8.89,8.89,0,0,0,1.81,5.57,6.28,6.28,0,0,0,10.15-.06A8.7,8.7,0,0,0,406.78,202.83Z" transform="translate(-80.55 -131)"/><path class="cls-1" d="M436.4,219.85a1.46,1.46,0,0,1-.52,1.08,1.63,1.63,0,0,1-1.14.49l-4.43,0-4.43,0q-1.14,0-1.11-1l0-.34q.43-11.75.43-14.24v-9.14q0-.86-.4-.86a7.29,7.29,0,0,0-1.86.37,7.33,7.33,0,0,1-1.89.37q-1,0-1-1.14t0-3.14q0-2.09,0-3.17,0-.62.77-.92a17.69,17.69,0,0,0,7.11-5q.52-.65.89-.65l.37.06,3.48.77q1.23.15,3.6.55a.61.61,0,0,1,.43.68,5.81,5.81,0,0,1-.06.65q-.34,2.71-.34,13.26,0,3.54,0,10.64T436.4,219.85Z" transform="translate(-80.55 -131)"/><path class="cls-1" d="M469.13,191.05a2.08,2.08,0,0,1-.8,1.32,22.87,22.87,0,0,0-4.06,5.94,52.14,52.14,0,0,0-3,6.64,57.89,57.89,0,0,0-3.14,14.7q-.15,2-1.32,2.31a31.41,31.41,0,0,1-5.75.28q-2.92,0-3.48-.06-2.62-.28-2.62-1.48,0-4.43,2.86-11.2a97.21,97.21,0,0,1,5.32-10.46q2.86-4.92,2.86-4.86,0-.31-1.29-.31-2.28,0-6.83.23t-6.83.23a.68.68,0,0,1-.77-.77,14.13,14.13,0,0,1,.31-2.49q.34-1.88.4-2.49.12-1.38.12-4.61,0-.8,1.38-.8t3.35.22q2.83.31,3.38.34,5.29.4,18.15.4a1.38,1.38,0,0,1,1.51,1.45Q469.13,187.76,469.13,191.05Z" transform="translate(-80.55 -131)"/><path class="cls-1" d="M554.85,205l-23.61,23.61V181.44Z" transform="translate(-80.55 -131)"/><path class="cls-1" d="M134.31,181.44v47.23L110.7,205Z" transform="translate(-80.55 -131)"/><path class="cls-6" d="M202.34,336.72c0,.4-.19.61-.57.61h-6.91c-.38,0-.57-.23-.57-.68q0-2,.15-5.92t.15-5.92c0-.38-.06-.58-.18-.6a56,56,0,0,0-2.62,6L189,337.17a.82.82,0,0,1-.49.53,7.29,7.29,0,0,1-.78,0c-.68,0-1.08-.13-1.21-.39q-1.05-2.15-2.77-6.25-1.84-4.33-2.75-6.27a.63.63,0,0,0-.18-.21.93.93,0,0,0-.14.57q0,1.91.1,5.74t.1,5.74q0,.68-.55.68H173.8q-.39,0-.48-.13a.81.81,0,0,1-.09-.44q0-2.13.21-6.39t.21-6.39q0-2.26-.2-8.49,0-1.62-.17-4.82l0-.33q0-.39.82-.39,1.07,0,3.22-.07t3.22-.07q.21,0,.6.82l5.7,12.51q.6,1.27,1,1.27.21,0,.92-1.46,2-4.1,5.84-12.36.33-.76.72-.76.57,0,1.71.06t1.73.06q.49,0,1.49-.1t1.49-.1q.59,0,.59.47,0,2.31-.17,6.88T202,324q0,2.13.18,6.38T202.34,336.72Z" transform="translate(-80.55 -131)"/><path class="cls-6" d="M269.32,316.14c0,.26-.14.39-.43.39q-.74,0-5.88-.29-.12,4.94-.12,6.89,0,2.3.19,6.93t.19,6.93c0,.25-.06.4-.18.47a2.25,2.25,0,0,1-.55.1,28.19,28.19,0,0,1-3.44.16,27,27,0,0,1-3.53-.16A.57.57,0,0,1,255,337q0-2.3.2-6.91t.2-6.91q0-1.52-.16-6.79-3.9.39-6.23.39c-.21,0-.31-.07-.31-.2A11.29,11.29,0,0,1,249,315q.31-1.37.35-1.66.06-.92.14-1.84.14-1.46.47-1.46l.27,0a79,79,0,0,0,9.35.41q1.76,0,6.48-.37l2.56-.2a1.08,1.08,0,0,1,.45,0s.06.16.08.38,0,.84,0,1.46,0,1.18,0,1.46a11.66,11.66,0,0,0,.13,1.43A11.63,11.63,0,0,1,269.32,316.14Z" transform="translate(-80.55 -131)"/><path class="cls-6" d="M347.21,320.56s-1.21,2.66-3.63,7.87-3.87,8.3-4.22,9a2.57,2.57,0,0,1-.21.39.73.73,0,0,1-.37.18,17.91,17.91,0,0,1-2.77.12,15.85,15.85,0,0,1-2.6-.12,1.8,1.8,0,0,1-.47-.16,1.42,1.42,0,0,1-.25-.37q-.12-.21-1.11-2.75l-2.13-5.43-2.17,5.49q-.33.94-1.09,2.69a2.12,2.12,0,0,1-.27.4,1.12,1.12,0,0,1-.45.13,17.82,17.82,0,0,1-2.56.12,18.07,18.07,0,0,1-2.81-.12.87.87,0,0,1-.55-.57q-7.65-15.71-7.65-16.83,0-1.56.11-4.68t.11-4.67q0-.64.39-.64,1.11,0,3.37.1t3.39.1q.45,0,.45.37,0,1.56-.15,4.71t-.15,4.71a16.6,16.6,0,0,0,1.42,3.73q1.29,2.81,1.87,3.81.29.51.39.51t.8-1.87a38.31,38.31,0,0,0,1.87-6.21q.08-1.79,0-4.57-.06-4-.06-4.59a.91.91,0,0,1,.06-.44.92.92,0,0,1,.43-.13,33.91,33.91,0,0,1,3.44-.12q3.73,0,3.73.53,0,1.31-.1,4.06t-.08,4.06v1q0,1,2,6.34a6.44,6.44,0,0,0,.82,1.85q.1,0,.39-.51.55-1,1.76-3.79a16.5,16.5,0,0,0,1.35-3.67q0-1.58-.15-4.73t-.15-4.71c0-.23.15-.35.45-.35q1.15,0,3.47-.1t3.46-.1q.37,0,.37.78,0,1.54.11,4.62T347.21,320.56Z" transform="translate(-80.55 -131)"/><path class="cls-6" d="M397.41,314c0,.26-.14.39-.43.39q-.74,0-5.88-.29Q391,319,391,321q0,2.3.19,6.93t.19,6.93c0,.25-.06.4-.18.47a2.24,2.24,0,0,1-.55.1,28.2,28.2,0,0,1-3.44.16,27,27,0,0,1-3.53-.16.57.57,0,0,1-.55-.61q0-2.3.2-6.91t.2-6.91q0-1.52-.16-6.79-3.91.39-6.23.39c-.21,0-.31-.07-.31-.2a11.38,11.38,0,0,1,.27-1.5q.31-1.37.35-1.66.06-.92.14-1.84.14-1.46.47-1.46l.27,0a79,79,0,0,0,9.35.41q1.76,0,6.48-.37l2.56-.2a1.08,1.08,0,0,1,.45,0s.06.16.08.38,0,.84,0,1.46,0,1.18,0,1.46a11.85,11.85,0,0,0,.13,1.43A11.44,11.44,0,0,1,397.41,314Z" transform="translate(-80.55 -131)"/><path class="cls-6" d="M425.7,334.8q0,.41-.17.51a1.54,1.54,0,0,1-.55.1q-1.19.12-3.36.12a28.63,28.63,0,0,1-3.6-.12q-.54-.12-.54-.53,0-1.54.15-4.64t.15-4.64c0-.51-.14-.8-.43-.88a36.22,36.22,0,0,0-4.72-.16,37,37,0,0,0-4.76.16q-.43.1-.43.88,0,1.52.1,4.56t.1,4.56a.61.61,0,0,1-.53.68,31,31,0,0,1-3.67.12,28.23,28.23,0,0,1-3.36-.12c-.38-.07-.57-.27-.57-.61q0-2.11.21-6.36t.21-6.38q0-2.26-.2-6.8t-.2-6.8c0-.29.14-.43.41-.43s1,0,1.82.06,1.42.06,1.83.06,1,0,1.88-.06,1.47-.06,1.88-.06c.22,0,.33.12.33.35q0,1.46-.21,4.38t-.21,4.38q0,.68.37.8a77.51,77.51,0,0,0,9.84,0q.47-.12.47-.8,0-1.4-.14-4.25t-.14-4.26c0-.4.16-.61.49-.61s1,0,1.73.06,1.36.06,1.75.06,1,0,1.73-.06,1.36-.06,1.75-.06.57.16.57.47q0,2.25-.19,6.77t-.18,6.79q0,2.13.2,6.38T425.7,334.8Z" transform="translate(-80.55 -131)"/><path class="cls-6" d="M482.93,311.69c0,.14-.13.22-.39.22q-1.46,0-4.44-.25t-4.46-.25a9.12,9.12,0,0,0-2.19.14q-.72.33-.72,1.87,0,1.86.94,2.11a5.23,5.23,0,0,0,1.19.1q1.35,0,4-.15t4-.15q.64,0,.64,3.44a14.45,14.45,0,0,1-.21,3.47.52.52,0,0,1-.53.35,6.86,6.86,0,0,0-1.23-.14q-2.09-.19-6.32-.2-1.37,0-1.54,0c-.66.1-1,.38-1,.84q0,2.77.23,6.38.19,3.26.2,2.91,0,.51-1.23.59a16.72,16.72,0,0,0-1.74,0,26.19,26.19,0,0,1-4.7-.25q-.57-.14-.57-.61,0-2.17.15-6.51t.15-6.51q0-2.58-.23-6.48-.35-6-.37-6.48l0-.23c0-.33.18-.49.59-.49q1.44,0,4.36.06t4.38.06q1.56,0,4.69-.23t4.7-.23q1,0,1.09.8t.08,2.52q0,.43.25,1.66A10,10,0,0,1,482.93,311.69Z" transform="translate(-80.55 -131)"/><path class="cls-6" d="M123.42,328.93a8.62,8.62,0,0,1-3.34,6.79,14.26,14.26,0,0,1-7.12,3.18l-.25,0q-.45,0-2-2.74a11.86,11.86,0,0,1-1.54-3.35q0-.21.29-.27a20.62,20.62,0,0,0,3.75-1.09,3.23,3.23,0,0,0,2-3,4.59,4.59,0,0,0-1.33-2.83q-2.3-2.65-2.5-2.95a8,8,0,0,1-1.35-4.49,7.06,7.06,0,0,1,3.3-5.93,14.82,14.82,0,0,1,6.62-2.54l.33,0q.29,0,.47.47.51,1.43,2.36,5.15a.46.46,0,0,1,.06.2q0,.33-.35.33a3.92,3.92,0,0,1-.53-.06,3.91,3.91,0,0,0-.57-.06,4.62,4.62,0,0,0-2.46.64,2.29,2.29,0,0,0-1.27,2.07,5.1,5.1,0,0,0,1.41,2.93l2.6,3.28A7.83,7.83,0,0,1,123.42,328.93Z" transform="translate(-80.55 -131)"/><path class="cls-6" d="M552.43,328.34a8.63,8.63,0,0,1-3.34,6.79,14.26,14.26,0,0,1-7.12,3.18l-.25,0q-.45,0-2-2.74a11.83,11.83,0,0,1-1.54-3.35c0-.14.1-.23.29-.27a20.6,20.6,0,0,0,3.75-1.09,3.23,3.23,0,0,0,2-3,4.6,4.6,0,0,0-1.33-2.83q-2.3-2.65-2.5-2.95a7.94,7.94,0,0,1-1.35-4.49,7.06,7.06,0,0,1,3.3-5.93,14.82,14.82,0,0,1,6.62-2.54l.33,0q.29,0,.47.47.51,1.43,2.36,5.15a.46.46,0,0,1,.06.2c0,.22-.12.33-.35.33a3.9,3.9,0,0,1-.53-.06,3.93,3.93,0,0,0-.57-.06,4.62,4.62,0,0,0-2.46.64,2.29,2.29,0,0,0-1.27,2.07,5.1,5.1,0,0,0,1.41,2.93l2.6,3.28A7.84,7.84,0,0,1,552.43,328.34Z" transform="translate(-80.55 -131)"/><path class="cls-7" d="M401.15,425.48h-.05l-3.35,1.59-.67-3.08,4.64-2.16h3.4v17.54h-4Z" transform="translate(-80.55 -131)"/><path class="cls-7" d="M467.4,439.38V436.9l2.27-2.05c3.83-3.43,5.7-5.4,5.75-7.45,0-1.43-.86-2.56-2.89-2.56a6.36,6.36,0,0,0-3.75,1.46l-1.16-2.94a9.72,9.72,0,0,1,5.75-1.81c4,0,6.16,2.32,6.16,5.51,0,2.94-2.13,5.29-4.67,7.56L473.23,436V436h6.61v3.37Z" transform="translate(-80.55 -131)"/><path class="cls-1" d="M539.67,435.36a9.68,9.68,0,0,0,4.08,1.08c2.13,0,3.21-1,3.21-2.35,0-1.73-1.73-2.51-3.54-2.51h-1.67v-2.94h1.59c1.38,0,3.13-.54,3.13-2,0-1.05-.86-1.84-2.59-1.84a8,8,0,0,0-3.67,1.05l-.84-3a11,11,0,0,1,5.43-1.32c3.75,0,5.83,2,5.83,4.37,0,1.86-1.05,3.32-3.21,4.08V430a4.36,4.36,0,0,1,3.81,4.27c0,3.1-2.73,5.37-7.18,5.37a10.37,10.37,0,0,1-5.21-1.24Z" transform="translate(-80.55 -131)"/><path class="cls-7" d="M117.2,548.95v-4.18h-7.77v-2.67l6.64-10.69h5v10.28h2.11v3.08h-2.11v4.18Zm0-7.26V537.8c0-1.05.05-2.13.13-3.27h-.11c-.57,1.13-1,2.16-1.62,3.27l-2.35,3.83v.05Z" transform="translate(-80.55 -131)"/><path class="cls-7" d="M193.15,534.77h-6.8l-.38,2.7a7.49,7.49,0,0,1,1.13-.05,8,8,0,0,1,4.62,1.27,5,5,0,0,1,2.13,4.4c0,3.27-2.81,6.15-7.53,6.15a11.14,11.14,0,0,1-4.89-1l.73-3.08a10.08,10.08,0,0,0,4,.86c1.7,0,3.51-.81,3.51-2.67s-1.43-2.91-4.94-2.91a15.09,15.09,0,0,0-2.37.16l1.16-9.2h9.66Z" transform="translate(-80.55 -131)"/><path class="cls-7" d="M264.13,534.32a11.27,11.27,0,0,0-1.59.05c-3.64.3-5.26,2.16-5.72,4.21h.08a4.94,4.94,0,0,1,3.72-1.4A5.32,5.32,0,0,1,266,542.9a6.28,6.28,0,0,1-6.48,6.34c-4.67,0-7-3.48-7-7.67a9.75,9.75,0,0,1,9.88-10.39,11.7,11.7,0,0,1,1.65,0Zm-2.24,8.8c0-1.62-.86-3-2.62-3a2.68,2.68,0,0,0-2.43,1.57,2.36,2.36,0,0,0-.16,1c.08,1.86,1,3.54,2.83,3.54C261,546.22,261.88,544.9,261.88,543.12Z" transform="translate(-80.55 -131)"/><path class="cls-7" d="M337.74,531.4V534l-7.23,15h-4.35l7.23-14.12v-.05h-8V531.4Z" transform="translate(-80.55 -131)"/><path class="cls-1" d="M395.64,544.36a4.66,4.66,0,0,1,3.13-4.4v-.08a4.26,4.26,0,0,1-2.54-3.83c0-3,2.67-4.94,6.18-4.94,4.1,0,5.8,2.38,5.8,4.51a4.27,4.27,0,0,1-2.54,3.86v.08a4.64,4.64,0,0,1,3.21,4.37c0,3.18-2.67,5.32-6.75,5.32C397.69,549.24,395.64,546.73,395.64,544.36Zm9.07-.13c0-1.54-1.13-2.46-2.75-2.89a2.66,2.66,0,0,0-2.13,2.62,2.4,2.4,0,0,0,2.48,2.46A2.2,2.2,0,0,0,404.71,544.22Zm-4.62-8.31c0,1.19,1.08,1.94,2.48,2.38a2.4,2.4,0,0,0,1.78-2.24,2,2,0,0,0-2.13-2.16A2,2,0,0,0,400.09,535.91Z" transform="translate(-80.55 -131)"/><path class="cls-7" d="M467.13,544.36a4.66,4.66,0,0,1,3.13-4.4v-.08a4.26,4.26,0,0,1-2.54-3.83c0-3,2.67-4.94,6.18-4.94,4.1,0,5.8,2.38,5.8,4.51a4.27,4.27,0,0,1-2.54,3.86v.08a4.64,4.64,0,0,1,3.21,4.37c0,3.18-2.67,5.32-6.75,5.32C469.18,549.24,467.13,546.73,467.13,544.36Zm9.07-.13c0-1.54-1.13-2.46-2.75-2.89a2.66,2.66,0,0,0-2.13,2.62,2.4,2.4,0,0,0,2.48,2.46A2.2,2.2,0,0,0,476.2,544.22Zm-4.62-8.31c0,1.19,1.08,1.94,2.48,2.38a2.4,2.4,0,0,0,1.78-2.24,2,2,0,0,0-2.13-2.16A2,2,0,0,0,471.59,535.91Z" transform="translate(-80.55 -131)"/><path class="cls-7" d="M540.24,546a9.71,9.71,0,0,0,1.78,0,7.06,7.06,0,0,0,3.46-1.08,5.45,5.45,0,0,0,2.21-3.24l-.08,0a4.63,4.63,0,0,1-3.51,1.27,5.29,5.29,0,0,1-5.48-5.48,6.38,6.38,0,0,1,6.61-6.32c4.51,0,6.64,3.46,6.64,7.56,0,3.64-1.16,6.32-3.08,8.07a10.38,10.38,0,0,1-6.69,2.46,14.33,14.33,0,0,1-1.86,0Zm2.48-8.8c0,1.51.81,2.81,2.48,2.81a2.58,2.58,0,0,0,2.27-1.16,1.93,1.93,0,0,0,.22-1c0-1.86-.7-3.7-2.56-3.7C543.72,534.1,542.69,535.34,542.72,537.18Z" transform="translate(-80.55 -131)"/><path class="cls-7" d="M108.4,655h-.05L105,656.64l-.67-3.08L109,651.4h3.4v17.54h-4Z" transform="translate(-80.55 -131)"/><path class="cls-7" d="M131.11,660.09c0,5.43-2.19,9.15-6.67,9.15s-6.53-4.08-6.56-9,2.16-9.1,6.69-9.1C129.27,651.1,131.11,655.29,131.11,660.09Zm-9.1.11c0,4,.94,5.94,2.54,5.94s2.46-2,2.46-6-.84-5.94-2.48-5.94S122,656.12,122,660.2Z" transform="translate(-80.55 -131)"/><path class="cls-1" d="M179.89,655h-.05l-3.35,1.59-.67-3.08,4.64-2.16h3.4v17.54h-4Z" transform="translate(-80.55 -131)"/><path class="cls-1" d="M194.88,655h-.05l-3.35,1.59-.67-3.08,4.64-2.16h3.4v17.54h-4Z" transform="translate(-80.55 -131)"/><path class="cls-7" d="M251.39,655h-.05L248,656.64l-.67-3.08L252,651.4h3.4v17.54h-4Z" transform="translate(-80.55 -131)"/><path class="cls-7" d="M261.13,668.95v-2.48l2.27-2.05c3.83-3.43,5.7-5.4,5.75-7.45,0-1.43-.86-2.56-2.89-2.56a6.36,6.36,0,0,0-3.75,1.46l-1.16-2.94a9.72,9.72,0,0,1,5.75-1.81c4,0,6.16,2.32,6.16,5.51,0,2.94-2.13,5.29-4.67,7.56L267,665.52v.05h6.61v3.37Z" transform="translate(-80.55 -131)"/><path class="cls-7" d="M323.62,655h-.05l-3.35,1.59-.67-3.08,4.64-2.16h3.4v17.54h-4Z" transform="translate(-80.55 -131)"/><path class="cls-7" d="M334.1,664.92a9.68,9.68,0,0,0,4.08,1.08c2.13,0,3.21-1,3.21-2.35,0-1.73-1.73-2.51-3.54-2.51h-1.67V658.2h1.59c1.38,0,3.13-.54,3.13-2,0-1.05-.86-1.84-2.59-1.84a8,8,0,0,0-3.67,1.05l-.84-3a11,11,0,0,1,5.43-1.32c3.75,0,5.83,2,5.83,4.37,0,1.86-1.05,3.32-3.21,4.08v.05a4.36,4.36,0,0,1,3.81,4.27c0,3.1-2.73,5.37-7.18,5.37a10.37,10.37,0,0,1-5.21-1.24Z" transform="translate(-80.55 -131)"/><path class="cls-7" d="M394.37,655h-.05L391,656.64l-.67-3.08,4.64-2.16h3.4v17.54h-4Z" transform="translate(-80.55 -131)"/><path class="cls-7" d="M411.38,668.95v-4.18h-7.77v-2.67l6.64-10.69h5v10.28h2.11v3.08h-2.11v4.18Zm0-7.26V657.8c0-1.05.05-2.13.13-3.27h-.11c-.57,1.13-1,2.16-1.62,3.27l-2.35,3.83v.05Z" transform="translate(-80.55 -131)"/><path class="cls-7" d="M465.87,655h-.05l-3.35,1.59-.67-3.08,4.64-2.16h3.4v17.54h-4Z" transform="translate(-80.55 -131)"/><path class="cls-7" d="M487.33,654.77h-6.8l-.38,2.7a7.5,7.5,0,0,1,1.13-.05,8,8,0,0,1,4.62,1.27,5,5,0,0,1,2.13,4.4c0,3.27-2.81,6.15-7.53,6.15a11.14,11.14,0,0,1-4.89-1l.73-3.08a10.08,10.08,0,0,0,4,.86c1.7,0,3.51-.81,3.51-2.67s-1.43-2.91-4.94-2.91a15.09,15.09,0,0,0-2.37.16l1.16-9.2h9.66Z" transform="translate(-80.55 -131)"/><path class="cls-7" d="M537.41,655h-.05L534,656.64l-.67-3.08L538,651.4h3.4v17.54h-4Z" transform="translate(-80.55 -131)"/><path class="cls-7" d="M558.36,654.32a11.27,11.27,0,0,0-1.59.05c-3.64.3-5.26,2.16-5.72,4.21h.08a4.94,4.94,0,0,1,3.72-1.4,5.32,5.32,0,0,1,5.43,5.72,6.28,6.28,0,0,1-6.48,6.34c-4.67,0-7-3.48-7-7.67a9.75,9.75,0,0,1,9.88-10.39,11.7,11.7,0,0,1,1.65,0Zm-2.24,8.8c0-1.62-.86-3-2.62-3a2.68,2.68,0,0,0-2.43,1.57,2.36,2.36,0,0,0-.16,1c.08,1.86,1,3.54,2.83,3.54C555.2,666.22,556.12,664.9,556.12,663.12Z" transform="translate(-80.55 -131)"/><path class="cls-7" d="M108.4,758.79h-.05L105,760.39l-.67-3.08,4.64-2.16h3.4V772.7h-4Z" transform="translate(-80.55 -131)"/><path class="cls-7" d="M130.73,755.15v2.59l-7.23,15h-4.35l7.23-14.12v-.05h-8v-3.37Z" transform="translate(-80.55 -131)"/><path class="cls-7" d="M179.89,758.79h-.05l-3.35,1.59-.67-3.08,4.64-2.16h3.4V772.7h-4Z" transform="translate(-80.55 -131)"/><path class="cls-7" d="M189.37,768.11a4.66,4.66,0,0,1,3.13-4.4v-.08a4.26,4.26,0,0,1-2.54-3.83c0-3,2.67-4.94,6.18-4.94,4.1,0,5.8,2.38,5.8,4.51a4.27,4.27,0,0,1-2.54,3.86v.08a4.64,4.64,0,0,1,3.21,4.37c0,3.18-2.67,5.32-6.75,5.32C191.42,773,189.37,770.48,189.37,768.11Zm9.07-.13c0-1.54-1.13-2.46-2.75-2.89a2.66,2.66,0,0,0-2.13,2.62,2.4,2.4,0,0,0,2.48,2.46A2.2,2.2,0,0,0,198.44,768Zm-4.62-8.31c0,1.19,1.08,1.94,2.48,2.38a2.4,2.4,0,0,0,1.78-2.24,2,2,0,0,0-2.13-2.16A2,2,0,0,0,193.83,759.66Z" transform="translate(-80.55 -131)"/><path class="cls-7" d="M251.39,758.79h-.05L248,760.39l-.67-3.08,4.64-2.16h3.4V772.7h-4Z" transform="translate(-80.55 -131)"/><path class="cls-7" d="M262.43,769.73a9.71,9.71,0,0,0,1.78,0,7.06,7.06,0,0,0,3.46-1.08,5.45,5.45,0,0,0,2.21-3.24l-.08,0a4.63,4.63,0,0,1-3.51,1.27,5.29,5.29,0,0,1-5.48-5.48,6.38,6.38,0,0,1,6.61-6.32c4.51,0,6.64,3.46,6.64,7.56,0,3.64-1.16,6.32-3.08,8.07a10.38,10.38,0,0,1-6.69,2.46,14.33,14.33,0,0,1-1.86,0Zm2.48-8.8c0,1.51.81,2.81,2.48,2.81a2.58,2.58,0,0,0,2.27-1.16,1.93,1.93,0,0,0,.22-1c0-1.86-.7-3.7-2.56-3.7C265.91,757.85,264.89,759.09,264.91,760.93Z" transform="translate(-80.55 -131)"/><path class="cls-7" d="M318.39,772.7v-2.48l2.27-2.05c3.83-3.43,5.7-5.4,5.75-7.45,0-1.43-.86-2.56-2.89-2.56a6.36,6.36,0,0,0-3.75,1.46l-1.16-2.94a9.72,9.72,0,0,1,5.75-1.81c4,0,6.16,2.32,6.16,5.51,0,2.94-2.13,5.29-4.67,7.56l-1.62,1.35v.05h6.61v3.37Z" transform="translate(-80.55 -131)"/><path class="cls-7" d="M346.33,763.84c0,5.43-2.19,9.15-6.67,9.15s-6.53-4.08-6.56-9,2.16-9.1,6.69-9.1C344.49,754.85,346.33,759,346.33,763.84Zm-9.1.11c0,4,.94,5.94,2.54,5.94s2.46-2,2.46-6-.84-5.94-2.48-5.94S337.2,759.87,337.23,763.95Z" transform="translate(-80.55 -131)"/><path class="cls-7" d="M389.14,772.7v-2.48l2.27-2.05c3.83-3.43,5.7-5.4,5.75-7.45,0-1.43-.86-2.56-2.89-2.56a6.36,6.36,0,0,0-3.75,1.46l-1.16-2.94a9.72,9.72,0,0,1,5.75-1.81c4,0,6.16,2.32,6.16,5.51,0,2.94-2.13,5.29-4.67,7.56L395,769.27v.05h6.61v3.37Z" transform="translate(-80.55 -131)"/><path class="cls-7" d="M409.36,758.79h-.05L406,760.39l-.67-3.08,4.64-2.16h3.4V772.7h-4Z" transform="translate(-80.55 -131)"/><path class="cls-1" d="M460.63,772.7v-2.48l2.27-2.05c3.83-3.43,5.7-5.4,5.75-7.45,0-1.43-.86-2.56-2.89-2.56A6.36,6.36,0,0,0,462,759.6l-1.16-2.94a9.72,9.72,0,0,1,5.75-1.81c4,0,6.16,2.32,6.16,5.51,0,2.94-2.13,5.29-4.67,7.56l-1.62,1.35v.05h6.61v3.37Z" transform="translate(-80.55 -131)"/><path class="cls-1" d="M475.61,772.7v-2.48l2.27-2.05c3.83-3.43,5.7-5.4,5.75-7.45,0-1.43-.86-2.56-2.89-2.56A6.36,6.36,0,0,0,477,759.6l-1.16-2.94a9.72,9.72,0,0,1,5.75-1.81c4,0,6.16,2.32,6.16,5.51,0,2.94-2.13,5.29-4.67,7.56l-1.62,1.35v.05h6.61v3.37Z" transform="translate(-80.55 -131)"/><path class="cls-7" d="M532.17,772.7v-2.48l2.27-2.05c3.83-3.43,5.7-5.4,5.75-7.45,0-1.43-.86-2.56-2.89-2.56a6.36,6.36,0,0,0-3.75,1.46l-1.16-2.94a9.72,9.72,0,0,1,5.75-1.81c4,0,6.16,2.32,6.16,5.51,0,2.94-2.13,5.29-4.67,7.56L538,769.27v.05h6.61v3.37Z" transform="translate(-80.55 -131)"/><path class="cls-7" d="M547.88,768.67a9.68,9.68,0,0,0,4.08,1.08c2.13,0,3.21-1,3.21-2.35,0-1.73-1.73-2.51-3.54-2.51H550V762h1.59c1.38,0,3.13-.54,3.13-2,0-1.05-.86-1.84-2.59-1.84a8,8,0,0,0-3.67,1.05l-.84-3a11,11,0,0,1,5.43-1.32c3.75,0,5.83,2,5.83,4.37,0,1.86-1.05,3.32-3.21,4.08v.05a4.36,4.36,0,0,1,3.81,4.27c0,3.1-2.73,5.37-7.18,5.37a10.37,10.37,0,0,1-5.21-1.24Z" transform="translate(-80.55 -131)"/><rect class="cls-5" y="698.01" width="71.49" height="114.11"/><rect class="cls-5" x="71.49" y="698.01" width="71.49" height="114.11"/><path class="cls-3" d="M294,830V942.12H224.54V830H294m1-1H223.54V943.12H295V829Z" transform="translate(-80.55 -131)"/><path class="cls-3" d="M365.52,830V942.12H296V830h69.49m1-1H295V943.12h71.49V829Z" transform="translate(-80.55 -131)"/><path class="cls-3" d="M437,830V942.12H367.52V830H437m1-1H366.52V943.12H438V829Z" transform="translate(-80.55 -131)"/><path class="cls-3" d="M508.51,830V942.12H439V830h69.49m1-1H438V943.12h71.49V829Z" transform="translate(-80.55 -131)"/><path class="cls-3" d="M580,830V942.12H510.51V830H580m1-1H509.51V943.12H581V829Z" transform="translate(-80.55 -131)"/><path class="cls-1" d="M103.17,885.7v-2.48l2.27-2.05c3.83-3.43,5.7-5.4,5.75-7.45,0-1.43-.86-2.56-2.89-2.56a6.36,6.36,0,0,0-3.75,1.46l-1.16-2.94a9.72,9.72,0,0,1,5.75-1.81c4,0,6.16,2.32,6.16,5.51,0,2.94-2.13,5.29-4.67,7.56L109,882.27v.05h6.61v3.37Z" transform="translate(-80.55 -131)"/><path class="cls-1" d="M125.41,885.7v-4.18h-7.77v-2.67l6.64-10.69h5v10.28h2.11v3.08H129.3v4.18Zm0-7.26v-3.89c0-1.05.05-2.13.13-3.27h-.11c-.57,1.13-1,2.16-1.62,3.27l-2.35,3.83v.05Z" transform="translate(-80.55 -131)"/><path class="cls-1" d="M174.66,885.7v-2.48l2.27-2.05c3.83-3.43,5.7-5.4,5.75-7.45,0-1.43-.86-2.56-2.89-2.56A6.36,6.36,0,0,0,176,872.6l-1.16-2.94a9.72,9.72,0,0,1,5.75-1.81c4,0,6.16,2.32,6.16,5.51,0,2.94-2.13,5.29-4.67,7.56l-1.62,1.35v.05h6.61v3.37Z" transform="translate(-80.55 -131)"/><path class="cls-1" d="M201.36,871.52h-6.8l-.38,2.7a7.49,7.49,0,0,1,1.13-.05,8,8,0,0,1,4.62,1.27,5,5,0,0,1,2.13,4.4c0,3.27-2.81,6.15-7.53,6.15a11.14,11.14,0,0,1-4.89-1l.73-3.08a10.08,10.08,0,0,0,4,.86c1.7,0,3.51-.81,3.51-2.67s-1.43-2.91-4.94-2.91a15.09,15.09,0,0,0-2.37.16l1.16-9.2h9.66Z" transform="translate(-80.55 -131)"/><path class="cls-7" d="M246.15,885.7v-2.48l2.27-2.05c3.83-3.43,5.7-5.4,5.75-7.45,0-1.43-.86-2.56-2.89-2.56a6.36,6.36,0,0,0-3.75,1.46l-1.16-2.94a9.72,9.72,0,0,1,5.75-1.81c4,0,6.16,2.32,6.16,5.51,0,2.94-2.13,5.29-4.67,7.56L252,882.27v.05h6.61v3.37Z" transform="translate(-80.55 -131)"/><path class="cls-7" d="M272.34,871.07a11.27,11.27,0,0,0-1.59.05c-3.64.3-5.26,2.16-5.72,4.21h.08a4.94,4.94,0,0,1,3.72-1.4,5.32,5.32,0,0,1,5.43,5.72,6.28,6.28,0,0,1-6.48,6.34c-4.67,0-7-3.48-7-7.67a9.75,9.75,0,0,1,9.88-10.39,11.7,11.7,0,0,1,1.65,0Zm-2.24,8.8c0-1.62-.86-3-2.62-3a2.67,2.67,0,0,0-2.43,1.57,2.36,2.36,0,0,0-.16,1c.08,1.86,1,3.54,2.83,3.54C269.18,883,270.1,881.65,270.1,879.87Z" transform="translate(-80.55 -131)"/><path class="cls-7" d="M318.39,885.7v-2.48l2.27-2.05c3.83-3.43,5.7-5.4,5.75-7.45,0-1.43-.86-2.56-2.89-2.56a6.36,6.36,0,0,0-3.75,1.46l-1.16-2.94a9.72,9.72,0,0,1,5.75-1.81c4,0,6.16,2.32,6.16,5.51,0,2.94-2.13,5.29-4.67,7.56l-1.62,1.35v.05h6.61v3.37Z" transform="translate(-80.55 -131)"/><path class="cls-7" d="M345.95,868.15v2.59l-7.23,15h-4.35l7.23-14.12v-.05h-8v-3.37Z" transform="translate(-80.55 -131)"/><path class="cls-7" d="M389.14,885.7v-2.48l2.27-2.05c3.83-3.43,5.7-5.4,5.75-7.45,0-1.43-.86-2.56-2.89-2.56a6.36,6.36,0,0,0-3.75,1.46l-1.16-2.94a9.72,9.72,0,0,1,5.75-1.81c4,0,6.16,2.32,6.16,5.51,0,2.94-2.13,5.29-4.67,7.56L395,882.27v.05h6.61v3.37Z" transform="translate(-80.55 -131)"/><path class="cls-7" d="M403.85,881.11a4.66,4.66,0,0,1,3.13-4.4v-.08a4.26,4.26,0,0,1-2.54-3.83c0-3,2.67-4.94,6.18-4.94,4.1,0,5.8,2.38,5.8,4.51a4.27,4.27,0,0,1-2.54,3.86v.08a4.64,4.64,0,0,1,3.21,4.37c0,3.18-2.67,5.32-6.75,5.32C405.9,886,403.85,883.48,403.85,881.11Zm9.07-.13c0-1.54-1.13-2.46-2.75-2.89A2.66,2.66,0,0,0,408,880.7a2.4,2.4,0,0,0,2.48,2.46A2.2,2.2,0,0,0,412.92,881Zm-4.62-8.31c0,1.19,1.08,1.94,2.48,2.38a2.4,2.4,0,0,0,1.78-2.24,2,2,0,0,0-2.13-2.16A2,2,0,0,0,408.3,872.66Z" transform="translate(-80.55 -131)"/><path class="cls-7" d="M460.63,885.7v-2.48l2.27-2.05c3.83-3.43,5.7-5.4,5.75-7.45,0-1.43-.86-2.56-2.89-2.56A6.36,6.36,0,0,0,462,872.6l-1.16-2.94a9.72,9.72,0,0,1,5.75-1.81c4,0,6.16,2.32,6.16,5.51,0,2.94-2.13,5.29-4.67,7.56l-1.62,1.35v.05h6.61v3.37Z" transform="translate(-80.55 -131)"/><path class="cls-7" d="M476.91,882.73a9.71,9.71,0,0,0,1.78,0,7.06,7.06,0,0,0,3.46-1.08,5.45,5.45,0,0,0,2.21-3.24l-.08,0a4.63,4.63,0,0,1-3.51,1.27,5.29,5.29,0,0,1-5.48-5.48,6.38,6.38,0,0,1,6.61-6.32c4.51,0,6.64,3.46,6.64,7.56,0,3.64-1.16,6.32-3.08,8.07a10.38,10.38,0,0,1-6.69,2.46,14.33,14.33,0,0,1-1.86,0Zm2.48-8.8c0,1.51.81,2.81,2.48,2.81a2.58,2.58,0,0,0,2.27-1.16,1.93,1.93,0,0,0,.22-1c0-1.86-.7-3.7-2.56-3.7C480.39,870.85,479.37,872.09,479.39,873.93Z" transform="translate(-80.55 -131)"/><path class="cls-7" d="M532.9,881.67a9.68,9.68,0,0,0,4.08,1.08c2.13,0,3.21-1,3.21-2.35,0-1.73-1.73-2.51-3.54-2.51H535V875h1.59c1.38,0,3.13-.54,3.13-2,0-1.05-.86-1.84-2.59-1.84a8,8,0,0,0-3.67,1.05l-.84-3a11,11,0,0,1,5.43-1.32c3.75,0,5.83,2,5.83,4.37,0,1.86-1.05,3.32-3.21,4.08v.05a4.36,4.36,0,0,1,3.81,4.27c0,3.1-2.73,5.37-7.18,5.37a10.37,10.37,0,0,1-5.21-1.24Z" transform="translate(-80.55 -131)"/><path class="cls-7" d="M560.11,876.84c0,5.43-2.19,9.15-6.67,9.15s-6.53-4.08-6.56-9,2.16-9.1,6.69-9.1C558.27,867.85,560.11,872,560.11,876.84Zm-9.1.11c0,4,.94,5.94,2.54,5.94s2.46-2,2.46-6-.84-5.94-2.48-5.94S551,872.87,551,876.95Z" transform="translate(-80.55 -131)"/></svg>